<svg width="82" height="82" viewBox="0 0 82 82" fill="none" xmlns="http://www.w3.org/2000/svg">
<path d="M79.6667 73H78.3333V69C78.3333 68.6464 78.1929 68.3072 77.9428 68.0572C77.6928 67.8071 77.3536 67.6667 77 67.6667V25H78.3333C78.687 25 79.0261 24.8595 79.2761 24.6095C79.5262 24.3594 79.6667 24.0203 79.6667 23.6667V18.3333C79.6667 17.9797 79.5262 17.6406 79.2761 17.3905C79.0261 17.1405 78.687 17 78.3333 17H61V9H63.6667C64.0203 9 64.3594 8.85952 64.6095 8.60948C64.8595 8.35943 65 8.02029 65 7.66667V2.33333C65 1.97971 64.8595 1.64057 64.6095 1.39052C64.3594 1.14048 64.0203 1 63.6667 1H18.3333C17.9797 1 17.6406 1.14048 17.3905 1.39052C17.1405 1.64057 17 1.97971 17 2.33333V7.66667C17 8.02029 17.1405 8.35943 17.3905 8.60948C17.6406 8.85952 17.9797 9 18.3333 9H21V17H3.66667C3.31304 17 2.97391 17.1405 2.72386 17.3905C2.47381 17.6406 2.33333 17.9797 2.33333 18.3333V23.6667C2.33333 24.0203 2.47381 24.3594 2.72386 24.6095C2.97391 24.8595 3.31304 25 3.66667 25H5V67.6667C4.64638 67.6667 4.30724 67.8071 4.05719 68.0572C3.80714 68.3072 3.66667 68.6464 3.66667 69V73H2.33333C1.97971 73 1.64057 73.1405 1.39052 73.3905C1.14048 73.6406 1 73.9797 1 74.3333V79.6667C1 80.0203 1.14048 80.3594 1.39052 80.6095C1.64057 80.8595 1.97971 81 2.33333 81H79.6667C80.0203 81 80.3594 80.8595 80.6095 80.6095C80.8595 80.3594 81 80.0203 81 79.6667V74.3333C81 73.9797 80.8595 73.6406 80.6095 73.3905C80.3594 73.1405 80.0203 73 79.6667 73ZM74.3333 67.6667H61V25H74.3333V67.6667ZM77 19.6667V22.3333H61V19.6667H77ZM19.6667 3.66667H62.3333V6.33333H19.6667V3.66667ZM58.3333 9V67.6667H50.3333V58.3333C50.3333 55.858 49.35 53.484 47.5997 51.7337C45.8493 49.9833 43.4754 49 41 49C38.5246 49 36.1507 49.9833 34.4003 51.7337C32.65 53.484 31.6667 55.858 31.6667 58.3333V67.6667H23.6667V9H58.3333ZM47.6667 67.6667H34.3333V58.3333C34.3333 56.5652 35.0357 54.8695 36.286 53.6193C37.5362 52.369 39.2319 51.6667 41 51.6667C42.7681 51.6667 44.4638 52.369 45.714 53.6193C46.9643 54.8695 47.6667 56.5652 47.6667 58.3333V67.6667ZM5 19.6667H21V22.3333H5V19.6667ZM7.66667 25H21V67.6667H7.66667V25ZM6.33333 70.3333H75.6667V73H6.33333V70.3333ZM78.3333 78.3333H3.66667V75.6667H78.3333V78.3333Z" fill="#161616" stroke="black" stroke-width="0.5"/>
<path d="M27.6668 22.334H33.0002C33.3538 22.334 33.6929 22.1935 33.943 21.9435C34.193 21.6934 34.3335 21.3543 34.3335 21.0007V15.6673C34.3335 15.3137 34.193 14.9746 33.943 14.7245C33.6929 14.4745 33.3538 14.334 33.0002 14.334H27.6668C27.3132 14.334 26.9741 14.4745 26.724 14.7245C26.474 14.9746 26.3335 15.3137 26.3335 15.6673V21.0007C26.3335 21.3543 26.474 21.6934 26.724 21.9435C26.9741 22.1935 27.3132 22.334 27.6668 22.334ZM29.0002 17.0007H31.6668V19.6673H29.0002V17.0007Z" fill="#161616"/>
<path d="M38.3333 22.334H43.6667C44.0203 22.334 44.3594 22.1935 44.6095 21.9435C44.8595 21.6934 45 21.3543 45 21.0007V15.6673C45 15.3137 44.8595 14.9746 44.6095 14.7245C44.3594 14.4745 44.0203 14.334 43.6667 14.334H38.3333C37.9797 14.334 37.6406 14.4745 37.3905 14.7245C37.1405 14.9746 37 15.3137 37 15.6673V21.0007C37 21.3543 37.1405 21.6934 37.3905 21.9435C37.6406 22.1935 37.9797 22.334 38.3333 22.334ZM39.6667 17.0007H42.3333V19.6673H39.6667V17.0007Z" fill="#161616"/>
<path d="M27.6668 33H33.0002C33.3538 33 33.6929 32.8595 33.943 32.6095C34.193 32.3594 34.3335 32.0203 34.3335 31.6667V26.3333C34.3335 25.9797 34.193 25.6406 33.943 25.3905C33.6929 25.1405 33.3538 25 33.0002 25H27.6668C27.3132 25 26.9741 25.1405 26.724 25.3905C26.474 25.6406 26.3335 25.9797 26.3335 26.3333V31.6667C26.3335 32.0203 26.474 32.3594 26.724 32.6095C26.9741 32.8595 27.3132 33 27.6668 33ZM29.0002 27.6667H31.6668V30.3333H29.0002V27.6667Z" fill="#161616"/>
<path d="M38.3333 33H43.6667C44.0203 33 44.3594 32.8595 44.6095 32.6095C44.8595 32.3594 45 32.0203 45 31.6667V26.3333C45 25.9797 44.8595 25.6406 44.6095 25.3905C44.3594 25.1405 44.0203 25 43.6667 25H38.3333C37.9797 25 37.6406 25.1405 37.3905 25.3905C37.1405 25.6406 37 25.9797 37 26.3333V31.6667C37 32.0203 37.1405 32.3594 37.3905 32.6095C37.6406 32.8595 37.9797 33 38.3333 33ZM39.6667 27.6667H42.3333V30.3333H39.6667V27.6667Z" fill="#161616"/>
<path d="M27.6668 43.666H33.0002C33.3538 43.666 33.6929 43.5255 33.943 43.2755C34.193 43.0254 34.3335 42.6863 34.3335 42.3327V36.9993C34.3335 36.6457 34.193 36.3066 33.943 36.0565C33.6929 35.8065 33.3538 35.666 33.0002 35.666H27.6668C27.3132 35.666 26.9741 35.8065 26.724 36.0565C26.474 36.3066 26.3335 36.6457 26.3335 36.9993V42.3327C26.3335 42.6863 26.474 43.0254 26.724 43.2755C26.9741 43.5255 27.3132 43.666 27.6668 43.666ZM29.0002 38.3327H31.6668V40.9993H29.0002V38.3327Z" fill="#161616"/>
<path d="M38.3333 43.666H43.6667C44.0203 43.666 44.3594 43.5255 44.6095 43.2755C44.8595 43.0254 45 42.6863 45 42.3327V36.9993C45 36.6457 44.8595 36.3066 44.6095 36.0565C44.3594 35.8065 44.0203 35.666 43.6667 35.666H38.3333C37.9797 35.666 37.6406 35.8065 37.3905 36.0565C37.1405 36.3066 37 36.6457 37 36.9993V42.3327C37 42.6863 37.1405 43.0254 37.3905 43.2755C37.6406 43.5255 37.9797 43.666 38.3333 43.666ZM39.6667 38.3327H42.3333V40.9993H39.6667V38.3327Z" fill="#161616"/>
<path d="M48.9998 22.334H54.3332C54.6868 22.334 55.0259 22.1935 55.276 21.9435C55.526 21.6934 55.6665 21.3543 55.6665 21.0007V15.6673C55.6665 15.3137 55.526 14.9746 55.276 14.7245C55.0259 14.4745 54.6868 14.334 54.3332 14.334H48.9998C48.6462 14.334 48.3071 14.4745 48.057 14.7245C47.807 14.9746 47.6665 15.3137 47.6665 15.6673V21.0007C47.6665 21.3543 47.807 21.6934 48.057 21.9435C48.3071 22.1935 48.6462 22.334 48.9998 22.334ZM50.3332 17.0007H52.9998V19.6673H50.3332V17.0007Z" fill="#161616"/>
<path d="M48.9998 33H54.3332C54.6868 33 55.0259 32.8595 55.276 32.6095C55.526 32.3594 55.6665 32.0203 55.6665 31.6667V26.3333C55.6665 25.9797 55.526 25.6406 55.276 25.3905C55.0259 25.1405 54.6868 25 54.3332 25H48.9998C48.6462 25 48.3071 25.1405 48.057 25.3905C47.807 25.6406 47.6665 25.9797 47.6665 26.3333V31.6667C47.6665 32.0203 47.807 32.3594 48.057 32.6095C48.3071 32.8595 48.6462 33 48.9998 33ZM50.3332 27.6667H52.9998V30.3333H50.3332V27.6667Z" fill="#161616"/>
<path d="M48.9998 43.666H54.3332C54.6868 43.666 55.0259 43.5255 55.276 43.2755C55.526 43.0254 55.6665 42.6863 55.6665 42.3327V36.9993C55.6665 36.6457 55.526 36.3066 55.276 36.0565C55.0259 35.8065 54.6868 35.666 54.3332 35.666H48.9998C48.6462 35.666 48.3071 35.8065 48.057 36.0565C47.807 36.3066 47.6665 36.6457 47.6665 36.9993V42.3327C47.6665 42.6863 47.807 43.0254 48.057 43.2755C48.3071 43.5255 48.6462 43.666 48.9998 43.666ZM50.3332 38.3327H52.9998V40.9993H50.3332V38.3327Z" fill="#161616"/>
<path d="M64.9998 35.666H70.3332C70.6868 35.666 71.0259 35.5255 71.276 35.2755C71.526 35.0254 71.6665 34.6863 71.6665 34.3327V28.9993C71.6665 28.6457 71.526 28.3066 71.276 28.0565C71.0259 27.8065 70.6868 27.666 70.3332 27.666H64.9998C64.6462 27.666 64.3071 27.8065 64.057 28.0565C63.807 28.3066 63.6665 28.6457 63.6665 28.9993V34.3327C63.6665 34.6863 63.807 35.0254 64.057 35.2755C64.3071 35.5255 64.6462 35.666 64.9998 35.666ZM66.3332 30.3327H68.9998V32.9993H66.3332V30.3327Z" fill="#161616"/>
<path d="M64.9998 46.334H70.3332C70.6868 46.334 71.0259 46.1935 71.276 45.9435C71.526 45.6934 71.6665 45.3543 71.6665 45.0007V39.6673C71.6665 39.3137 71.526 38.9746 71.276 38.7245C71.0259 38.4745 70.6868 38.334 70.3332 38.334H64.9998C64.6462 38.334 64.3071 38.4745 64.057 38.7245C63.807 38.9746 63.6665 39.3137 63.6665 39.6673V45.0007C63.6665 45.3543 63.807 45.6934 64.057 45.9435C64.3071 46.1935 64.6462 46.334 64.9998 46.334ZM66.3332 41.0007H68.9998V43.6673H66.3332V41.0007Z" fill="#161616"/>
<path d="M64.9998 57H70.3332C70.6868 57 71.0259 56.8595 71.276 56.6095C71.526 56.3594 71.6665 56.0203 71.6665 55.6667V50.3333C71.6665 49.9797 71.526 49.6406 71.276 49.3905C71.0259 49.1405 70.6868 49 70.3332 49H64.9998C64.6462 49 64.3071 49.1405 64.057 49.3905C63.807 49.6406 63.6665 49.9797 63.6665 50.3333V55.6667C63.6665 56.0203 63.807 56.3594 64.057 56.6095C64.3071 56.8595 64.6462 57 64.9998 57ZM66.3332 51.6667H68.9998V54.3333H66.3332V51.6667Z" fill="#161616"/>
<path d="M17.0002 27.666H11.6668C11.3132 27.666 10.9741 27.8065 10.724 28.0565C10.474 28.3066 10.3335 28.6457 10.3335 28.9993V34.3327C10.3335 34.6863 10.474 35.0254 10.724 35.2755C10.9741 35.5255 11.3132 35.666 11.6668 35.666H17.0002C17.3538 35.666 17.6929 35.5255 17.943 35.2755C18.193 35.0254 18.3335 34.6863 18.3335 34.3327V28.9993C18.3335 28.6457 18.193 28.3066 17.943 28.0565C17.6929 27.8065 17.3538 27.666 17.0002 27.666ZM15.6668 32.9993H13.0002V30.3327H15.6668V32.9993Z" fill="#161616"/>
<path d="M17.0002 38.334H11.6668C11.3132 38.334 10.9741 38.4745 10.724 38.7245C10.474 38.9746 10.3335 39.3137 10.3335 39.6673V45.0007C10.3335 45.3543 10.474 45.6934 10.724 45.9435C10.9741 46.1935 11.3132 46.334 11.6668 46.334H17.0002C17.3538 46.334 17.6929 46.1935 17.943 45.9435C18.193 45.6934 18.3335 45.3543 18.3335 45.0007V39.6673C18.3335 39.3137 18.193 38.9746 17.943 38.7245C17.6929 38.4745 17.3538 38.334 17.0002 38.334ZM15.6668 43.6673H13.0002V41.0007H15.6668V43.6673Z" fill="#161616"/>
<path d="M17.0002 49H11.6668C11.3132 49 10.9741 49.1405 10.724 49.3905C10.474 49.6406 10.3335 49.9797 10.3335 50.3333V55.6667C10.3335 56.0203 10.474 56.3594 10.724 56.6095C10.9741 56.8595 11.3132 57 11.6668 57H17.0002C17.3538 57 17.6929 56.8595 17.943 56.6095C18.193 56.3594 18.3335 56.0203 18.3335 55.6667V50.3333C18.3335 49.9797 18.193 49.6406 17.943 49.3905C17.6929 49.1405 17.3538 49 17.0002 49ZM15.6668 54.3333H13.0002V51.6667H15.6668V54.3333Z" fill="#161616"/>
</svg>
