<svg width="90" height="82" viewBox="0 0 90 82" fill="none" xmlns="http://www.w3.org/2000/svg">
<path fill-rule="evenodd" clip-rule="evenodd" d="M19.0998 30.3516H14.5998C12.9998 30.3516 11.7998 31.6516 11.7998 33.1516V37.6516C11.7998 39.2516 13.0998 40.4516 14.5998 40.4516H19.0998C20.6998 40.4516 21.8998 39.1516 21.8998 37.6516V33.1516C21.8998 31.6516 20.6998 30.3516 19.0998 30.3516ZM18.5998 37.1516H15.1998V33.7516H18.5998V37.1516Z" fill="#161616"/>
<path fill-rule="evenodd" clip-rule="evenodd" d="M52.9001 24.75H48.4001C46.8001 24.75 45.6001 26.05 45.6001 27.55V32.05C45.6001 33.65 46.9001 34.85 48.4001 34.85H52.9001C54.5001 34.85 55.7001 33.55 55.7001 32.05V27.55C55.7001 25.95 54.4001 24.75 52.9001 24.75ZM52.3001 31.45H48.9001V28.05H52.3001V31.45Z" fill="#161616"/>
<path fill-rule="evenodd" clip-rule="evenodd" d="M52.9001 39.3516H48.4001C46.8001 39.3516 45.6001 40.6516 45.6001 42.1516V46.6516C45.6001 48.2516 46.9001 49.4516 48.4001 49.4516H52.9001C54.5001 49.4516 55.7001 48.1516 55.7001 46.6516V42.1516C55.7001 40.6516 54.4001 39.3516 52.9001 39.3516ZM52.3001 46.1516H48.9001V42.7516H52.3001V46.1516Z" fill="#161616"/>
<path fill-rule="evenodd" clip-rule="evenodd" d="M52.9001 10.1504H48.4001C46.8001 10.1504 45.6001 11.4504 45.6001 12.9504V17.4504C45.6001 19.0504 46.9001 20.2504 48.4001 20.2504H52.9001C54.5001 20.2504 55.7001 18.9504 55.7001 17.4504V12.9504C55.7001 11.3504 54.4001 10.1504 52.9001 10.1504ZM52.3001 16.8504H48.9001V13.4504H52.3001V16.8504Z" fill="#161616"/>
<path fill-rule="evenodd" clip-rule="evenodd" d="M40.5002 24.75H36.0002C34.4002 24.75 33.2002 26.05 33.2002 27.55V32.05C33.2002 33.65 34.5002 34.85 36.0002 34.85H40.5002C42.1002 34.85 43.3002 33.55 43.3002 32.05V27.55C43.3002 25.95 42.1002 24.75 40.5002 24.75ZM39.9002 31.45H36.5002V28.05H39.9002V31.45Z" fill="#161616"/>
<path fill-rule="evenodd" clip-rule="evenodd" d="M40.5002 39.3516H36.0002C34.4002 39.3516 33.2002 40.6516 33.2002 42.1516V46.6516C33.2002 48.2516 34.5002 49.4516 36.0002 49.4516H40.5002C42.1002 49.4516 43.3002 48.1516 43.3002 46.6516V42.1516C43.3002 40.6516 42.1002 39.3516 40.5002 39.3516ZM39.9002 46.1516H36.5002V42.7516H39.9002V46.1516Z" fill="#161616"/>
<path fill-rule="evenodd" clip-rule="evenodd" d="M40.5002 10.1504H36.0002C34.4002 10.1504 33.2002 11.4504 33.2002 12.9504V17.4504C33.2002 19.0504 34.5002 20.2504 36.0002 20.2504H40.5002C42.1002 20.2504 43.3002 18.9504 43.3002 17.4504V12.9504C43.3002 11.3504 42.1002 10.1504 40.5002 10.1504ZM39.9002 16.8504H36.5002V13.4504H39.9002V16.8504Z" fill="#161616"/>
<path fill-rule="evenodd" clip-rule="evenodd" d="M19.0998 44.9512H14.5998C12.9998 44.9512 11.7998 46.2512 11.7998 47.7512V52.2512C11.7998 53.8512 13.0998 55.0512 14.5998 55.0512H19.0998C20.6998 55.0512 21.8998 53.7512 21.8998 52.2512V47.7512C21.8998 46.2512 20.6998 44.9512 19.0998 44.9512ZM18.5998 51.7512H15.1998V48.3512H18.5998V51.7512Z" fill="#161616"/>
<path fill-rule="evenodd" clip-rule="evenodd" d="M77.1 78.1508V71.2508C81.3 70.4508 84.4 66.8508 84.4 62.4508C84.4 57.4508 80.4 48.3508 75.4 48.3508C70.4 48.3508 66.4 57.4508 66.4 62.4508C66.4 66.8508 69.5 70.4508 73.7 71.2508V78.1508H63V1.65078C63 1.05078 62.5 0.550781 61.9 0.550781H27C26.4 0.550781 25.9 1.05078 25.9 1.65078V9.55078H10.1C9.5 9.55078 9 10.0508 9 10.6508V16.2508H5.6C5 16.2508 4.5 16.7508 4.5 17.3508V24.0508V25.1508V78.0508H0V81.4508H5.6H11.2H22.4H27H28.1H36H52.9H61.9H73.7H77.1H90V78.0508H77.1V78.1508ZM69.7 62.4508C69.7 60.6508 70.5 57.7508 71.9 55.2508C72.6 54.0508 73.3 53.0508 74 52.4508C74.7 51.8508 75.1 51.7508 75.3 51.7508C75.5 51.7508 75.9 51.8508 76.6 52.4508C77.3 53.0508 78 53.9508 78.7 55.2508C80.1 57.7508 80.9 60.7508 80.9 62.4508C80.9 65.5508 78.4 68.0508 75.3 68.0508C72.3 68.0508 69.7 65.5508 69.7 62.4508ZM12.4 12.9508H25.9V16.3508H12.4V12.9508ZM7.9 19.6508H10.1H25.8V23.0508H7.8V19.6508H7.9ZM14.6 78.1508V70.2508C14.6 69.0508 15.6 68.0508 16.8 68.0508C18 68.0508 19 69.0508 19 70.2508V78.1508H14.6ZM16.9 64.6508C13.8 64.6508 11.3 67.1508 11.3 70.2508V78.1508H7.9V26.4508H25.9V78.1508H22.5V70.2508C22.5 67.1508 20 64.6508 16.9 64.6508ZM39.4 78.1508V65.7508H49.5V78.1508H39.4ZM52.9 78.1508V64.6508C52.9 63.4508 51.9 62.4508 50.7 62.4508H38.3C37.1 62.4508 36.1 63.4508 36.1 64.6508V78.1508H29.4V25.3508V24.2508V18.6508V17.5508V10.8508V4.15078H59.8V78.3508H52.9V78.1508Z" fill="#161616"/>
</svg>
