<svg width="86" height="60" viewBox="0 0 86 60" fill="none" xmlns="http://www.w3.org/2000/svg">
<path d="M31.1302 42.4065C30.926 42.229 30.6597 42.1402 30.3844 42.1757L6.11141 45.1499C5.64086 45.212 5.27686 45.6116 5.27686 46.091V51.5511C5.27686 51.8174 5.38339 52.066 5.57871 52.2436C5.75628 52.4034 5.98711 52.5011 6.22682 52.5011C6.24458 52.5011 6.27122 52.5011 6.28897 52.5011L30.5709 50.8231C31.0681 50.7876 31.4498 50.3792 31.4498 49.882V43.1168C31.4498 42.8416 31.3344 42.5841 31.1302 42.4065ZM29.5588 48.9942L7.17679 50.539V46.9255L29.5588 44.1733V48.9942Z" fill="#4F1563" stroke="#4F1563" stroke-width="0.8"/>
<path d="M31.0857 26.9139C30.8549 26.7363 30.5619 26.6742 30.2778 26.7363L6.00478 32.7025C5.57863 32.809 5.28564 33.1819 5.28564 33.6258V39.0859C5.28564 39.37 5.40994 39.6364 5.63189 39.8139C5.80058 39.956 6.01366 40.027 6.23561 40.027C6.29776 40.027 6.35103 40.0181 6.41318 40.0092L30.6862 35.3482C31.1301 35.2594 31.4586 34.8688 31.4586 34.416V27.6508C31.4497 27.3667 31.3166 27.0915 31.0857 26.9139ZM29.5587 33.6436L7.1767 37.9317V34.3538L29.5587 28.8582V33.6436Z" fill="#4F1563" stroke="#4F1563" stroke-width="0.8"/>
<path d="M31.0414 11.4207C30.784 11.2431 30.4643 11.1987 30.1714 11.3053L5.89833 20.2545C5.52545 20.3877 5.27686 20.7428 5.27686 21.1423V26.6024C5.27686 26.9043 5.41891 27.1884 5.6675 27.366C5.83618 27.4903 6.0315 27.5524 6.22682 27.5524C6.32448 27.5524 6.42214 27.5347 6.51093 27.508L30.784 19.8728C31.1746 19.7485 31.4498 19.3844 31.4498 18.9672V12.202C31.4498 11.8912 31.2989 11.5982 31.0414 11.4207ZM29.5588 18.2747L7.17679 25.3151V21.7993L29.5588 13.5514V18.2747Z" fill="#4F1563" stroke="#4F1563" stroke-width="0.8"/>
<path d="M70.265 52.873L82.1174 54.1514C82.1529 54.1514 82.1884 54.1603 82.2151 54.1603C82.4459 54.1603 82.6767 54.0715 82.8454 53.9206C83.0496 53.743 83.1562 53.4856 83.1562 53.2192V49.0465C83.1562 48.5937 82.8365 48.203 82.3838 48.1142L70.5313 45.8414C70.2561 45.7882 69.9631 45.8592 69.7501 46.0456C69.5281 46.2232 69.4038 46.4895 69.4038 46.7736V51.9408C69.4216 52.4202 69.7856 52.8197 70.265 52.873ZM71.3215 47.9101L81.274 49.8189V52.1538L71.3215 51.0796V47.9101Z" fill="#4F1563" stroke="#4F1563" stroke-width="0.8"/>
<path d="M70.0966 41.04L81.949 44.6001C82.0378 44.6267 82.1266 44.6356 82.2242 44.6356C82.4284 44.6356 82.6238 44.5735 82.7925 44.4492C83.0322 44.2716 83.1742 43.9875 83.1742 43.6856V39.5129C83.1742 39.1223 82.9345 38.7671 82.5705 38.6251L70.7092 34.0795C70.4162 33.964 70.0877 34.0084 69.8303 34.186C69.5728 34.3636 69.4219 34.6565 69.4219 34.9673V40.1344C69.4219 40.5516 69.6971 40.9157 70.0966 41.04ZM71.3218 36.3434L81.2743 40.1699V42.4161L71.3218 39.4241V36.3434Z" fill="#4F1563" stroke="#4F1563" stroke-width="0.8"/>
<path d="M85.0916 25.449L68.5693 14.1471L68.5604 14.1382C68.4538 14.0672 68.3473 14.0228 68.223 14.005C68.2141 14.005 68.2052 14.005 68.1875 13.9961C68.1609 13.9872 68.1253 13.9872 68.0987 13.9872C68.0809 13.9872 68.0632 13.9872 68.0543 13.9872C68.0277 13.9872 68.001 13.9872 67.9833 13.9872C67.9655 13.9872 67.9478 13.9872 67.93 13.9961C67.9123 13.9961 67.8856 14.005 67.8679 14.005C67.8501 14.005 67.8324 14.0139 67.8057 14.0228C67.788 14.0316 67.7702 14.0316 67.7436 14.0405C67.7258 14.0494 67.6992 14.0583 67.6814 14.0583C67.6726 14.0583 67.6637 14.0672 67.6548 14.0672L57.8532 18.3553V16.2246C57.8532 15.9138 57.7023 15.6208 57.4449 15.4433L35.8175 0.634417C35.8087 0.634417 35.8086 0.625539 35.7998 0.625539C35.6932 0.554513 35.5867 0.510122 35.4624 0.492366C35.4535 0.492366 35.4358 0.492366 35.4269 0.483488C35.4003 0.483488 35.3736 0.474609 35.347 0.474609C35.3292 0.474609 35.3115 0.474609 35.2937 0.474609C35.2671 0.474609 35.2493 0.474609 35.2227 0.474609C35.2049 0.474609 35.1872 0.47461 35.1694 0.483488C35.1517 0.483488 35.125 0.492366 35.1073 0.492366C35.0895 0.492366 35.0629 0.501243 35.0451 0.510122C35.0274 0.519 35.0096 0.519001 34.9919 0.527879C34.9741 0.536757 34.9475 0.545635 34.9297 0.554513C34.9208 0.554513 34.9119 0.563391 34.9031 0.563391L1.06821 15.3545C0.721955 15.5054 0.5 15.8428 0.5 16.2246V58.5736C0.5 59.0974 0.926154 59.5236 1.44997 59.5236H35.276H42.201H68.0366H84.55C85.0738 59.5236 85.5 59.0974 85.5 58.5736V26.2303C85.5 25.9196 85.3491 25.6266 85.0916 25.449ZM55.9622 19.1721L53.9024 20.0777L38.8095 11.3771C38.5165 11.2084 38.1525 11.2084 37.8595 11.3771C37.5665 11.5457 37.389 11.8565 37.389 12.1938V18.959C37.389 19.3231 37.5932 19.6515 37.9217 19.8114L45.7256 23.6556L41.8281 25.3602C41.4818 25.5112 41.2599 25.8485 41.2599 26.2303V27.7662L38.6852 26.7719C38.3922 26.6565 38.0637 26.7008 37.8062 26.8784C37.5488 27.056 37.3979 27.349 37.3979 27.6597V34.4249C37.3979 34.8422 37.6731 35.215 38.0726 35.3305L41.2599 36.2893V42.7083L38.5165 42.1844C38.2413 42.1312 37.9483 42.2022 37.7352 42.3886C37.5133 42.5662 37.389 42.8326 37.389 43.1167V49.8819C37.389 50.3613 37.753 50.7697 38.2324 50.8229L41.251 51.1514V57.6237H36.2259V3.21798L55.9622 16.7217V19.1721ZM47.9896 22.6613L39.28 18.3731V13.8363L51.745 21.0188L47.9896 22.6613ZM41.251 34.3095L39.28 33.7146V29.0269L41.251 29.7816V34.3095ZM41.251 49.2426L39.28 49.0296V44.262L41.251 44.6437V49.2426ZM2.39106 16.8372L34.326 2.86285V57.6237H2.39106V16.8372ZM43.1509 26.8429L67.0955 16.3666V57.6148H43.1509V26.8429ZM83.6089 57.6237H68.9865V16.7217L83.6089 26.7275V57.6237Z" fill="#4F1563" stroke="#4F1563" stroke-width="0.8"/>
<path d="M69.9542 29.1776L81.7977 35.0106C81.9309 35.0727 82.0729 35.1082 82.215 35.1082C82.3925 35.1082 82.5612 35.0639 82.7121 34.9662C82.9874 34.7975 83.1561 34.4868 83.1561 34.1583V29.9855C83.1561 29.6481 82.9785 29.3374 82.6855 29.1687L70.8331 22.3414C70.5401 22.1727 70.1761 22.1727 69.8831 22.3414C69.5902 22.51 69.4126 22.8208 69.4126 23.1582V28.3253C69.4215 28.6893 69.6257 29.0178 69.9542 29.1776ZM71.3214 24.7917L81.2739 30.5271V32.6312L71.3214 27.7393V24.7917Z" fill="#4F1563" stroke="#4F1563" stroke-width="0.8"/>
<path d="M64.9291 22.3777C64.6717 22.2001 64.3521 22.1557 64.0591 22.2623L45.5214 29.0896C45.1485 29.2228 44.8999 29.5779 44.8999 29.9774V34.1502C44.8999 34.4521 45.042 34.7362 45.2905 34.9137C45.4592 35.038 45.6545 35.1002 45.8499 35.1002C45.9475 35.1002 46.0452 35.0824 46.134 35.0558L64.6717 29.2228C65.0623 29.0985 65.3375 28.7345 65.3375 28.3172V23.159C65.3375 22.8482 65.1866 22.5553 64.9291 22.3777ZM63.4376 27.6336L46.791 32.8717V30.6522L63.4376 24.5173V27.6336Z" fill="#4F1563" stroke="#4F1563" stroke-width="0.8"/>
<path d="M65.0179 46.055C64.8137 45.8774 64.5474 45.7886 64.2722 45.8241L45.7345 48.1058C45.2639 48.168 44.8999 48.5675 44.8999 49.0469V53.2197C44.8999 53.486 45.0064 53.7346 45.2018 53.9122C45.3793 54.0809 45.6102 54.1696 45.8499 54.1696C45.8676 54.1696 45.8943 54.1696 45.912 54.1696L64.4497 52.8912C64.9469 52.8557 65.3287 52.4473 65.3287 51.9501V46.783C65.3375 46.49 65.2221 46.2325 65.0179 46.055ZM63.4376 51.0534L46.791 52.1987V49.8815L63.4376 47.8395V51.0534Z" fill="#4F1563" stroke="#4F1563" stroke-width="0.8"/>
<path d="M64.9734 34.2127C64.7426 34.0352 64.4496 33.973 64.1655 34.0352L45.6278 38.5897C45.2017 38.6962 44.9087 39.0691 44.9087 39.513V43.6858C44.9087 43.9699 45.033 44.2362 45.2549 44.4138C45.4236 44.5558 45.6367 44.6268 45.8587 44.6268C45.9208 44.6268 45.9741 44.618 46.0362 44.6091L64.5739 41.0489C65.0178 40.9601 65.3463 40.5695 65.3463 40.1167V34.9496C65.3374 34.6744 65.2043 34.3992 64.9734 34.2127ZM63.4375 39.3443L46.7909 42.5405V40.2588L63.4375 36.1748V39.3443Z" fill="#4F1563" stroke="#4F1563" stroke-width="0.8"/>
</svg>
