<svg width="80" height="80" viewBox="0 0 80 80" fill="none" xmlns="http://www.w3.org/2000/svg">
<path d="M73.3332 80.0006H67.9998C67.2638 80.0006 66.6665 79.4033 66.6665 78.6673V70.6673C66.6665 69.9313 67.2638 69.334 67.9998 69.334H73.3332C74.0692 69.334 74.6665 69.9313 74.6665 70.6673V78.6673C74.6665 79.4033 74.0692 80.0006 73.3332 80.0006ZM69.3332 77.334H71.9998V72.0007H69.3332V77.334Z" fill="#161616"/>
<path d="M49.3332 80.0006H43.9998C43.2638 80.0006 42.6665 79.4033 42.6665 78.6673V70.6673C42.6665 69.9313 43.2638 69.334 43.9998 69.334H49.3332C50.0692 69.334 50.6665 69.9313 50.6665 70.6673V78.6673C50.6665 79.4033 50.0692 80.0006 49.3332 80.0006ZM45.3332 77.334H47.9998V72.0007H45.3332V77.334Z" fill="#161616"/>
<path d="M76 72H41.3333C40.5973 72 40 71.4027 40 70.6667V65.3333C40 64.5973 40.5973 64 41.3333 64H76C76.736 64 77.3333 64.5973 77.3333 65.3333V70.6667C77.3333 71.4027 76.736 72 76 72ZM42.6667 69.3333H74.6667V66.6667H42.6667V69.3333Z" fill="#161616"/>
<path d="M76 61.334H41.3333C40.5973 61.334 40 60.7366 40 60.0006V54.6673C40 53.9313 40.5973 53.334 41.3333 53.334H76C76.736 53.334 77.3333 53.9313 77.3333 54.6673V60.0006C77.3333 60.7366 76.736 61.334 76 61.334ZM42.6667 58.6673H74.6667V56.0006H42.6667V58.6673Z" fill="#161616"/>
<path d="M46.6668 66.666C45.9308 66.666 45.3335 66.0687 45.3335 65.3327V59.9993C45.3335 59.2633 45.9308 58.666 46.6668 58.666C47.4028 58.666 48.0002 59.2633 48.0002 59.9993V65.3327C48.0002 66.0687 47.4028 66.666 46.6668 66.666Z" fill="#161616"/>
<path d="M70.6668 66.666C69.9308 66.666 69.3335 66.0687 69.3335 65.3327V59.9993C69.3335 59.2633 69.9308 58.666 70.6668 58.666C71.4028 58.666 72.0002 59.2633 72.0002 59.9993V65.3327C72.0002 66.0687 71.4028 66.666 70.6668 66.666Z" fill="#161616"/>
<path d="M46.6668 56C45.9308 56 45.3335 55.4027 45.3335 54.6667V49.3333C45.3335 48.5973 45.9308 48 46.6668 48C47.4028 48 48.0002 48.5973 48.0002 49.3333V54.6667C48.0002 55.4027 47.4028 56 46.6668 56Z" fill="#161616"/>
<path d="M70.6668 56C69.9308 56 69.3335 55.4027 69.3335 54.6667V49.3333C69.3335 48.5973 69.9308 48 70.6668 48C71.4028 48 72.0002 48.5973 72.0002 49.3333V54.6667C72.0002 55.4027 71.4028 56 70.6668 56Z" fill="#161616"/>
<path d="M58.6668 34.6667C57.9308 34.6667 57.3335 34.0693 57.3335 33.3333V1.33333C57.3335 0.597333 57.9308 0 58.6668 0C59.4028 0 60.0002 0.597333 60.0002 1.33333V33.3333C60.0002 34.0693 59.4028 34.6667 58.6668 34.6667Z" fill="#161616"/>
<path d="M72.0002 14.6673C71.2642 14.6673 70.6668 14.07 70.6668 13.334C70.6668 10.3927 68.2748 8.00065 65.3335 8.00065C62.3922 8.00065 60.0002 10.3927 60.0002 13.334C60.0002 14.07 59.4028 14.6673 58.6668 14.6673C57.9308 14.6673 57.3335 14.07 57.3335 13.334C57.3335 8.92198 60.9228 5.33398 65.3335 5.33398C69.7442 5.33398 73.3335 8.92198 73.3335 13.334C73.3335 14.07 72.7362 14.6673 72.0002 14.6673Z" fill="#161616"/>
<path d="M78.6667 20H65.3333C64.5973 20 64 19.4027 64 18.6667C64 14.9907 66.9907 12 70.6667 12H73.3333C77.0093 12 80 14.9907 80 18.6667C80 19.4027 79.4027 20 78.6667 20ZM66.8947 17.3333H77.104C76.5533 15.7813 75.0707 14.6667 73.332 14.6667H70.6653C68.928 14.6667 67.4453 15.7813 66.8947 17.3333Z" fill="#161616"/>
<path d="M72 26.6673C69.7947 26.6673 68 24.8727 68 22.6673V18.6673C68 17.9313 68.5973 17.334 69.3333 17.334H74.6667C75.4027 17.334 76 17.9313 76 18.6673V22.6673C76 24.8727 74.2053 26.6673 72 26.6673ZM70.6667 20.0007V22.6673C70.6667 23.402 71.264 24.0007 72 24.0007C72.736 24.0007 73.3333 23.402 73.3333 22.6673V20.0007H70.6667Z" fill="#161616"/>
<path d="M61.3332 56H55.9998C55.2638 56 54.6665 55.4027 54.6665 54.6667V36C54.6665 33.7947 56.4612 32 58.6665 32C60.8718 32 62.6665 33.7947 62.6665 36V54.6667C62.6665 55.4027 62.0692 56 61.3332 56ZM57.3332 53.3333H59.9998V36C59.9998 35.2653 59.4025 34.6667 58.6665 34.6667C57.9305 34.6667 57.3332 35.2653 57.3332 36V53.3333Z" fill="#161616"/>
<path d="M26.6665 61.3333C22.2558 61.3333 18.6665 57.7453 18.6665 53.3333V36C18.6665 31.588 22.2558 28 26.6665 28C31.0772 28 34.6665 31.588 34.6665 36V53.3333C34.6665 57.7453 31.0772 61.3333 26.6665 61.3333ZM26.6665 30.6667C23.7252 30.6667 21.3332 33.0587 21.3332 36V53.3333C21.3332 56.2747 23.7252 58.6667 26.6665 58.6667C29.6078 58.6667 31.9998 56.2747 31.9998 53.3333V36C31.9998 33.0587 29.6078 30.6667 26.6665 30.6667Z" fill="#161616"/>
<path d="M26.6664 50.6657C26.325 50.6657 25.9837 50.535 25.7237 50.275L23.057 47.6084C22.5357 47.087 22.5357 46.2444 23.057 45.723C23.577 45.2017 24.4224 45.2017 24.9424 45.723L27.609 48.3897C28.1304 48.911 28.1304 49.7537 27.609 50.275C27.349 50.535 27.0077 50.6657 26.6664 50.6657Z" fill="#161616"/>
<path d="M26.6667 55.9997C26.3253 55.9997 25.984 55.869 25.724 55.609C25.2027 55.0877 25.2027 54.245 25.724 53.7237L28.3907 51.057C28.9107 50.5357 29.756 50.5357 30.276 51.057C30.7973 51.5783 30.7973 52.421 30.276 52.9423L27.6093 55.609C27.3493 55.869 27.008 55.9997 26.6667 55.9997Z" fill="#161616"/>
<path d="M13.3335 61.3327C8.92283 61.3327 5.3335 57.7447 5.3335 53.3327V22.666C5.3335 18.254 8.92283 14.666 13.3335 14.666C17.7442 14.666 21.3335 18.254 21.3335 22.666V53.3327C21.3335 57.7447 17.7442 61.3327 13.3335 61.3327ZM13.3335 17.3327C10.3922 17.3327 8.00016 19.7247 8.00016 22.666V53.3327C8.00016 56.274 10.3922 58.666 13.3335 58.666C16.2748 58.666 18.6668 56.274 18.6668 53.3327V22.666C18.6668 19.7247 16.2748 17.3327 13.3335 17.3327Z" fill="#161616"/>
<path d="M13.3333 75.9993C12.5973 75.9993 12 75.402 12 74.666V27.9993C12 27.2633 12.5973 26.666 13.3333 26.666C14.0693 26.666 14.6667 27.2633 14.6667 27.9993V74.666C14.6667 75.402 14.0693 75.9993 13.3333 75.9993Z" fill="#161616"/>
<path d="M13.3333 50.6657C12.992 50.6657 12.6507 50.535 12.3907 50.275L9.72401 47.6084C9.20267 47.087 9.20267 46.2444 9.72401 45.723C10.244 45.2017 11.0893 45.2017 11.6093 45.723L14.276 48.3897C14.7973 48.911 14.7973 49.7537 14.276 50.275C14.016 50.535 13.6747 50.6657 13.3333 50.6657Z" fill="#161616"/>
<path d="M13.3332 55.9997C12.9918 55.9997 12.6505 55.869 12.3905 55.609C11.8692 55.0877 11.8692 54.245 12.3905 53.7237L15.0572 51.057C15.5772 50.5357 16.4225 50.5357 16.9425 51.057C17.4638 51.5783 17.4638 52.421 16.9425 52.9423L14.2758 55.609C14.0158 55.869 13.6745 55.9997 13.3332 55.9997Z" fill="#161616"/>
<path d="M13.3333 38.6657C12.992 38.6657 12.6507 38.535 12.3907 38.275L9.72401 35.6084C9.20267 35.087 9.20267 34.2444 9.72401 33.723C10.244 33.2017 11.0893 33.2017 11.6093 33.723L14.276 36.3897C14.7973 36.911 14.7973 37.7537 14.276 38.275C14.016 38.535 13.6747 38.6657 13.3333 38.6657Z" fill="#161616"/>
<path d="M13.3332 43.9997C12.9918 43.9997 12.6505 43.869 12.3905 43.609C11.8692 43.0877 11.8692 42.245 12.3905 41.7237L15.0572 39.057C15.5772 38.5357 16.4225 38.5357 16.9425 39.057C17.4638 39.5783 17.4638 40.421 16.9425 40.9424L14.2758 43.609C14.0158 43.869 13.6745 43.9997 13.3332 43.9997Z" fill="#161616"/>
<path d="M26.6668 72.572C25.9308 72.572 25.3335 71.9747 25.3335 71.2387V41.3333C25.3335 40.5973 25.9308 40 26.6668 40C27.4028 40 28.0002 40.5973 28.0002 41.3333V71.2387C28.0002 71.9747 27.4028 72.572 26.6668 72.572Z" fill="#161616"/>
<path d="M34.6667 80.0006H13.3333C12.5973 80.0006 12 79.4033 12 78.6673C12 75.0473 13.8507 73.054 17.212 73.054C17.3427 73.054 17.4733 73.062 17.604 73.078C18.9827 70.622 21.172 69.334 24 69.334C26.828 69.334 29.0173 70.622 30.396 73.078C30.5267 73.062 30.6573 73.054 30.788 73.054C34.1493 73.054 36 75.0473 36 78.6673C36 79.4033 35.4027 80.0006 34.6667 80.0006ZM14.8 77.334H33.2C32.8827 76.0233 32.0187 75.7207 30.788 75.7207C30.648 75.7207 30.4733 75.7713 30.252 75.874C29.9213 76.0286 29.544 76.0406 29.204 75.91C28.864 75.778 28.5933 75.514 28.4547 75.178C27.5547 73.01 26.1387 72.0007 24 72.0007C21.8613 72.0007 20.4453 73.01 19.5453 75.178C19.4053 75.514 19.1347 75.7793 18.796 75.91C18.4573 76.0406 18.0787 76.0273 17.748 75.874C17.5267 75.77 17.352 75.7207 17.212 75.7207C15.9813 75.7207 15.116 76.0233 14.8 77.334Z" fill="#161616"/>
<path d="M13.3333 80.0006H1.33333C0.597333 80.0006 0 79.4033 0 78.6673V76.3006C0 74.4286 0.613333 72.7046 1.72667 71.4486C2.988 70.026 4.604 69.334 6.66667 69.334C9.49467 69.334 11.684 70.622 13.0627 73.078C14.0867 72.9566 15.044 73.1633 15.8547 73.5073C16.3467 73.7167 16.6667 74.2006 16.6667 74.734C16.6667 75.2673 16.3467 75.7513 15.856 75.9607C15.5307 76.0993 14.6667 76.4673 14.6667 78.6673C14.6667 79.4033 14.0693 80.0006 13.3333 80.0006ZM2.66667 77.334H12.0947C12.1707 76.8313 12.2907 76.3873 12.4427 75.998C12.248 76.01 12.0547 75.982 11.872 75.9113C11.532 75.7793 11.2613 75.5153 11.1227 75.1793C10.2213 73.01 8.80533 72.0007 6.66667 72.0007C5.376 72.0007 4.46933 72.3766 3.72267 73.218C3.04133 73.986 2.66667 75.0806 2.66667 76.3006V77.334Z" fill="#161616"/>
<path d="M36.0002 14.6667H22.6668C19.7255 14.6667 17.3335 12.2747 17.3335 9.33333C17.3335 6.212 20.0868 3.69733 23.2108 4.02933C24.2468 1.632 26.6388 0 29.3335 0C32.0282 0 34.4202 1.632 35.4562 4.02933C38.5842 3.69867 41.3335 6.212 41.3335 9.33333C41.3335 12.2747 38.9415 14.6667 36.0002 14.6667ZM22.6668 6.66667C21.1962 6.66667 20.0002 7.86267 20.0002 9.33333C20.0002 10.804 21.1962 12 22.6668 12H36.0002C37.4708 12 38.6668 10.804 38.6668 9.33333C38.6668 7.54933 36.8828 6.14533 35.0415 6.85467C34.6748 6.99467 34.2642 6.968 33.9188 6.78C33.5735 6.592 33.3308 6.25867 33.2522 5.87333C32.8802 4.016 31.2322 2.66667 29.3335 2.66667C27.4348 2.66667 25.7868 4.016 25.4135 5.87333C25.3362 6.25867 25.0922 6.59067 24.7468 6.78C24.4015 6.96933 23.9908 6.996 23.6242 6.85467C23.3028 6.72933 22.9802 6.66667 22.6668 6.66667Z" fill="#161616"/>
<path d="M42.6668 27.9993C41.9308 27.9993 41.3335 27.402 41.3335 26.666C41.3335 25.1953 40.1375 23.9993 38.6668 23.9993C37.9308 23.9993 37.3335 23.402 37.3335 22.666C37.3335 21.93 37.9308 21.3327 38.6668 21.3327C40.0855 21.3327 41.3762 21.89 42.3335 22.7967C43.6988 20.3353 46.3255 18.666 49.3335 18.666C50.0695 18.666 50.6668 19.2633 50.6668 19.9993C50.6668 20.7353 50.0695 21.3327 49.3335 21.3327C46.3922 21.3327 44.0002 23.7247 44.0002 26.666C44.0002 27.402 43.4028 27.9993 42.6668 27.9993Z" fill="#161616"/>
<path d="M61.3332 80.0006H55.9998C55.2638 80.0006 54.6665 79.4033 54.6665 78.6673V70.6673C54.6665 69.9313 55.2638 69.334 55.9998 69.334H61.3332C62.0692 69.334 62.6665 69.9313 62.6665 70.6673V78.6673C62.6665 79.4033 62.0692 80.0006 61.3332 80.0006ZM57.3332 77.334H59.9998V72.0007H57.3332V77.334Z" fill="#161616"/>
</svg>
