<svg width="80" height="80" viewBox="0 0 80 80" fill="none" xmlns="http://www.w3.org/2000/svg">
<g clip-path="url(#clip0_43_1867)">
<path d="M78.75 42.5C79.4403 42.5 80 41.9403 80 41.25V23.75C80 23.0597 79.4403 22.5 78.75 22.5H66.25V1.25C66.25 0.559692 65.6903 0 65 0H15C14.3097 0 13.75 0.559692 13.75 1.25V22.5H1.25C0.559692 22.5 0 23.0597 0 23.75V41.25C0 41.9403 0.559692 42.5 1.25 42.5H7.5V72.5H1.25C0.559692 72.5 0 73.0597 0 73.75V78.75C0 79.4403 0.559692 80 1.25 80H78.75C79.4403 80 80 79.4403 80 78.75V73.75C80 73.0597 79.4403 72.5 78.75 72.5H72.5V42.5H78.75ZM16.25 2.5H63.75V22.5H51.2497L51.123 18.3429C53.2971 16.9769 54.6625 14.3268 54.6625 11.3501C54.6625 9.04968 53.8214 6.87195 52.3553 5.37537C51.8713 4.88098 51.0797 4.87366 50.5878 5.35706C50.0946 5.83984 50.0861 6.63147 50.5695 7.12463C51.582 8.15796 52.1625 9.69849 52.1625 11.3501C52.1625 13.645 51.0248 15.7043 49.3323 16.4746C48.8733 16.6833 48.5852 17.1466 48.6005 17.6501L48.7486 22.5H47.1639L47.312 17.6501C47.3273 17.1466 47.0392 16.6833 46.5802 16.4746C44.8877 15.7043 43.75 13.645 43.75 11.3501C43.75 9.69849 44.3304 8.15796 45.343 7.12463C45.8264 6.63147 45.8179 5.83984 45.3247 5.35706C44.8328 4.87488 44.0405 4.8822 43.5571 5.37537C42.0911 6.87195 41.25 9.04968 41.25 11.3501C41.25 14.3268 42.6154 16.9769 44.7894 18.3429L44.6628 22.5H36.6251L36.4984 18.3429C38.6725 16.9769 40.0378 14.3268 40.0378 11.3501C40.0378 6.9873 37.0264 3.4375 33.3252 3.4375C29.6307 3.4375 26.6248 6.9873 26.6248 11.3501C26.6248 14.3268 27.9901 16.9769 30.1642 18.3429L30.0375 22.5H16.25V2.5ZM34.1241 22.5H32.5385L32.6868 17.6501C32.702 17.1466 32.4139 16.6833 31.955 16.4746C30.2625 15.7043 29.1248 13.645 29.1248 11.3501C29.1248 8.36548 31.0089 5.9375 33.3252 5.9375C35.6482 5.9375 37.5378 8.36548 37.5378 11.3501C37.5378 13.645 36.4001 15.7043 34.7076 16.4746C34.2487 16.6833 33.9606 17.1466 33.9758 17.6501L34.1241 22.5ZM77.5 75V77.5H2.5V75H8.75H16.25H25H71.25H77.5ZM25 53.75H16.25C15.5597 53.75 15 54.3097 15 55V72.5H10V42.5H70V72.5H26.25V55C26.25 54.3097 25.6903 53.75 25 53.75ZM23.75 56.25V72.5H17.5V56.25H23.75ZM71.25 40H8.75H2.5V25H15H31.25H35.4126H65H77.5V40H71.25Z" fill="#161616" stroke="#161616" stroke-width="0.3"/>
<path d="M33.75 68.75H65C65.6903 68.75 66.25 68.1903 66.25 67.5V47.5C66.25 46.8097 65.6903 46.25 65 46.25H33.75C33.0597 46.25 32.5 46.8097 32.5 47.5V67.5C32.5 68.1903 33.0597 68.75 33.75 68.75ZM35 48.75H63.75V66.25H35V48.75Z" fill="#161616" stroke="#161616" stroke-width="0.4"/>
<path d="M47.9565 15C48.6469 15 49.2065 14.4403 49.2065 13.75V6.25C49.2065 5.55969 48.6469 5 47.9565 5C47.2662 5 46.7065 5.55969 46.7065 6.25V13.75C46.7065 14.4403 47.2662 15 47.9565 15Z" fill="#161616" stroke="#161616" stroke-width="0.3"/>
</g>
<defs>
<clipPath id="clip0_43_1867">
<rect width="80" height="80" fill="white"/>
</clipPath>
</defs>
</svg>
