<svg width="102" height="80" viewBox="0 0 102 80" fill="none" xmlns="http://www.w3.org/2000/svg">
<g clip-path="url(#clip0_43_1894)">
<mask id="path-1-inside-1_43_1894" fill="white">
<path d="M49.7493 16.0262V10.7266V10.6842V4.19762V1.48427C49.7493 1.27229 49.8341 1.01791 49.9613 0.848327C50.3005 0.254781 51.0636 0.0851966 51.6572 0.466762C53.7346 1.78104 55.7272 1.22989 57.6774 0.721139C59.5852 0.169989 61.4931 -0.338765 63.6553 0.297177C64.2488 0.38197 64.6728 0.890724 64.6728 1.48427V10.6842C64.6304 11.3202 64.164 11.8713 63.5281 11.9137C63.3585 11.9561 63.1889 11.9137 63.0617 11.8713C61.4931 11.405 59.9244 11.8713 58.3558 12.2953C56.4055 12.8464 54.4553 13.3552 52.2507 12.6345V16.0262L59.1613 21.6224H94.774C95.2404 21.6224 95.7068 21.8768 95.8764 22.3008L101.769 34.6381C101.854 34.85 101.939 35.062 101.939 35.274C101.939 35.9523 101.345 36.5035 100.667 36.5035H98.8017V71.4803C99.5224 71.6923 100.158 72.0739 100.625 72.5826L100.71 72.6674C101.473 73.4306 101.939 74.4905 101.939 75.6352V78.7301C101.939 79.4508 101.345 80.002 100.667 80.002H1.29052C0.612185 80.002 0.0610352 79.4508 0.0610352 78.7301V75.6352C0.0610352 74.4481 0.569789 73.3458 1.33292 72.5826C1.84167 72.0739 2.47762 71.6923 3.15595 71.4803V36.5035H1.29052C1.12094 36.5035 0.951355 36.4611 0.78177 36.3763C0.145828 36.0795 -0.108549 35.3588 0.188224 34.7229L6.03889 22.3856C6.20848 21.9192 6.67484 21.6224 7.18359 21.6224H42.7964L49.7493 16.0262ZM62.2986 24.0814L67.1741 28.0243C67.5133 28.2362 67.7677 28.6178 67.7677 29.0418V34.0445H97.5722H98.7169L94.0109 24.0814H62.2986ZM4.42784 34.0445H34.2323V29.0418C34.2323 28.7026 34.4019 28.321 34.6987 28.1091L39.7014 24.0814H7.98912L3.28314 34.0445H4.42784ZM86.3796 61.9836H90.1105V58.2527H86.3796V61.9836ZM91.3824 64.4426H85.1501C84.4718 64.4426 83.9206 63.8914 83.9206 63.2131V57.0232C83.9206 56.3025 84.4718 55.7514 85.1501 55.7514H91.3824C92.0607 55.7514 92.6118 56.3025 92.6118 57.0232V63.2131C92.6118 63.8914 92.0607 64.4426 91.3824 64.4426ZM86.3796 49.5615H90.1105V45.8307H86.3796V49.5615ZM91.3824 52.0205H85.1501C84.4718 52.0205 83.9206 51.4693 83.9206 50.791V44.6012C83.9206 43.8804 84.4718 43.3293 85.1501 43.3293H91.3824C92.0607 43.3293 92.6118 43.8804 92.6118 44.6012V50.791C92.6118 51.4693 92.0607 52.0205 91.3824 52.0205ZM73.9575 61.9836H77.6884V58.2527H73.9575V61.9836ZM78.9603 64.4426H72.7281C72.0497 64.4426 71.4986 63.8914 71.4986 63.2131V57.0232C71.4986 56.3025 72.0497 55.7514 72.7281 55.7514H78.9603C79.6386 55.7514 80.1898 56.3025 80.1898 57.0232V63.2131C80.1898 63.8914 79.6386 64.4426 78.9603 64.4426ZM73.9575 49.5615H77.6884V45.8307H73.9575V49.5615ZM78.9603 52.0205H72.7281C72.0497 52.0205 71.4986 51.4693 71.4986 50.791V44.6012C71.4986 43.8804 72.0497 43.3293 72.7281 43.3293H78.9603C79.6386 43.3293 80.1898 43.8804 80.1898 44.6012V50.791C80.1898 51.4693 79.6386 52.0205 78.9603 52.0205ZM67.7677 36.5035V71.3108H96.3427V36.5035H67.7677ZM24.2692 61.9836H28.0001V58.2527H24.2692V61.9836ZM29.272 64.4426H23.0398C22.3614 64.4426 21.8103 63.8914 21.8103 63.2131V57.0232C21.8103 56.3025 22.3614 55.7514 23.0398 55.7514H29.272C29.9503 55.7514 30.5015 56.3025 30.5015 57.0232V63.2131C30.5015 63.8914 29.9503 64.4426 29.272 64.4426ZM24.2692 49.5615H28.0001V45.8307H24.2692V49.5615ZM29.272 52.0205H23.0398C22.3614 52.0205 21.8103 51.4693 21.8103 50.791V44.6012C21.8103 43.8804 22.3614 43.3293 23.0398 43.3293H29.272C29.9503 43.3293 30.5015 43.8804 30.5015 44.6012V50.791C30.5015 51.4693 29.9503 52.0205 29.272 52.0205ZM11.8472 61.9836H15.578V58.2527H11.8472V61.9836ZM16.8499 64.4426H10.6177C9.93934 64.4426 9.38819 63.8914 9.38819 63.2131V57.0232C9.38819 56.3025 9.93934 55.7514 10.6177 55.7514H16.8499C17.5283 55.7514 18.0794 56.3025 18.0794 57.0232V63.2131C18.0794 63.8914 17.5283 64.4426 16.8499 64.4426ZM11.8472 49.5615H15.578V45.8307H11.8472V49.5615ZM16.8499 52.0205H10.6177C9.93934 52.0205 9.38819 51.4693 9.38819 50.791V44.6012C9.38819 43.8804 9.93934 43.3293 10.6177 43.3293H16.8499C17.5283 43.3293 18.0794 43.8804 18.0794 44.6012V50.791C18.0794 51.4693 17.5283 52.0205 16.8499 52.0205ZM66.5382 73.7697H57.2111H44.789H35.4618H4.42784C3.87669 73.7697 3.41033 73.9817 3.11356 74.3209C2.77439 74.66 2.56241 75.1264 2.56241 75.6352V77.5006H99.4376V75.6352C99.4376 75.1688 99.2256 74.7024 98.9289 74.3633L98.8865 74.3209C98.5473 73.9817 98.0809 73.7697 97.5722 73.7697H66.5382ZM34.2323 71.3108V36.5035H5.65733V71.3108H34.2323ZM50.9788 30.9072C52.6323 30.9072 54.0737 31.5855 55.176 32.6454C56.2359 33.7053 56.8719 35.1892 56.8719 36.8003C56.8719 38.4537 56.2359 39.9376 55.176 40.9975C54.0737 42.0574 52.6323 42.7357 50.9788 42.7357C49.3678 42.7357 47.8839 42.0574 46.824 40.9975C45.7641 39.9376 45.0858 38.4537 45.0858 36.8003C45.0858 35.1892 45.7641 33.7053 46.824 32.6454C47.8839 31.5855 49.3678 30.9072 50.9788 30.9072ZM53.3954 34.4261C52.8019 33.7901 51.9539 33.4086 50.9788 33.4086C50.0461 33.4086 49.1982 33.7901 48.5622 34.3837C47.9687 35.0196 47.5871 35.8676 47.5871 36.8003C47.5871 37.7754 47.9687 38.6233 48.5622 39.2169C49.1982 39.8528 50.0461 40.2344 50.9788 40.2344C51.9539 40.2344 52.8019 39.8528 53.3954 39.2592V39.2169C54.0313 38.6233 54.4129 37.7754 54.4129 36.8003C54.4129 35.8676 54.0313 35.0196 53.3954 34.4261ZM36.6913 71.3108H43.5171V60.1182C43.5171 58.0831 44.365 56.2601 45.6369 54.9034L45.7217 54.861C47.0784 53.5044 48.9438 52.6564 50.9788 52.6564C53.0562 52.6564 54.9217 53.5044 56.2359 54.861C57.5926 56.2177 58.4405 58.0407 58.4405 60.1182V71.3108H65.2663V35.274V29.6353L50.9788 18.2308L36.6913 29.6353V35.274V71.3108ZM46.0185 71.3108H55.9392V60.1182C55.9392 58.7615 55.388 57.4896 54.4977 56.5993C53.6074 55.709 52.3355 55.1578 50.9788 55.1578C49.6221 55.1578 48.3927 55.709 47.5023 56.5993L47.4175 56.6417C46.5696 57.532 46.0185 58.7615 46.0185 60.1182V71.3108ZM52.2507 4.19762V9.9635C54.1161 10.8962 55.8968 10.3875 57.6774 9.87871C59.1189 9.49714 60.6027 9.11558 62.1714 9.20037V2.50178C60.8995 2.37459 59.6276 2.75615 58.3558 3.09532C56.4055 3.64647 54.4553 4.15523 52.2507 3.47689V4.19762Z"/>
</mask>
<path d="M49.7493 16.0262V10.7266V10.6842V4.19762V1.48427C49.7493 1.27229 49.8341 1.01791 49.9613 0.848327C50.3005 0.254781 51.0636 0.0851966 51.6572 0.466762C53.7346 1.78104 55.7272 1.22989 57.6774 0.721139C59.5852 0.169989 61.4931 -0.338765 63.6553 0.297177C64.2488 0.38197 64.6728 0.890724 64.6728 1.48427V10.6842C64.6304 11.3202 64.164 11.8713 63.5281 11.9137C63.3585 11.9561 63.1889 11.9137 63.0617 11.8713C61.4931 11.405 59.9244 11.8713 58.3558 12.2953C56.4055 12.8464 54.4553 13.3552 52.2507 12.6345V16.0262L59.1613 21.6224H94.774C95.2404 21.6224 95.7068 21.8768 95.8764 22.3008L101.769 34.6381C101.854 34.85 101.939 35.062 101.939 35.274C101.939 35.9523 101.345 36.5035 100.667 36.5035H98.8017V71.4803C99.5224 71.6923 100.158 72.0739 100.625 72.5826L100.71 72.6674C101.473 73.4306 101.939 74.4905 101.939 75.6352V78.7301C101.939 79.4508 101.345 80.002 100.667 80.002H1.29052C0.612185 80.002 0.0610352 79.4508 0.0610352 78.7301V75.6352C0.0610352 74.4481 0.569789 73.3458 1.33292 72.5826C1.84167 72.0739 2.47762 71.6923 3.15595 71.4803V36.5035H1.29052C1.12094 36.5035 0.951355 36.4611 0.78177 36.3763C0.145828 36.0795 -0.108549 35.3588 0.188224 34.7229L6.03889 22.3856C6.20848 21.9192 6.67484 21.6224 7.18359 21.6224H42.7964L49.7493 16.0262ZM62.2986 24.0814L67.1741 28.0243C67.5133 28.2362 67.7677 28.6178 67.7677 29.0418V34.0445H97.5722H98.7169L94.0109 24.0814H62.2986ZM4.42784 34.0445H34.2323V29.0418C34.2323 28.7026 34.4019 28.321 34.6987 28.1091L39.7014 24.0814H7.98912L3.28314 34.0445H4.42784ZM86.3796 61.9836H90.1105V58.2527H86.3796V61.9836ZM91.3824 64.4426H85.1501C84.4718 64.4426 83.9206 63.8914 83.9206 63.2131V57.0232C83.9206 56.3025 84.4718 55.7514 85.1501 55.7514H91.3824C92.0607 55.7514 92.6118 56.3025 92.6118 57.0232V63.2131C92.6118 63.8914 92.0607 64.4426 91.3824 64.4426ZM86.3796 49.5615H90.1105V45.8307H86.3796V49.5615ZM91.3824 52.0205H85.1501C84.4718 52.0205 83.9206 51.4693 83.9206 50.791V44.6012C83.9206 43.8804 84.4718 43.3293 85.1501 43.3293H91.3824C92.0607 43.3293 92.6118 43.8804 92.6118 44.6012V50.791C92.6118 51.4693 92.0607 52.0205 91.3824 52.0205ZM73.9575 61.9836H77.6884V58.2527H73.9575V61.9836ZM78.9603 64.4426H72.7281C72.0497 64.4426 71.4986 63.8914 71.4986 63.2131V57.0232C71.4986 56.3025 72.0497 55.7514 72.7281 55.7514H78.9603C79.6386 55.7514 80.1898 56.3025 80.1898 57.0232V63.2131C80.1898 63.8914 79.6386 64.4426 78.9603 64.4426ZM73.9575 49.5615H77.6884V45.8307H73.9575V49.5615ZM78.9603 52.0205H72.7281C72.0497 52.0205 71.4986 51.4693 71.4986 50.791V44.6012C71.4986 43.8804 72.0497 43.3293 72.7281 43.3293H78.9603C79.6386 43.3293 80.1898 43.8804 80.1898 44.6012V50.791C80.1898 51.4693 79.6386 52.0205 78.9603 52.0205ZM67.7677 36.5035V71.3108H96.3427V36.5035H67.7677ZM24.2692 61.9836H28.0001V58.2527H24.2692V61.9836ZM29.272 64.4426H23.0398C22.3614 64.4426 21.8103 63.8914 21.8103 63.2131V57.0232C21.8103 56.3025 22.3614 55.7514 23.0398 55.7514H29.272C29.9503 55.7514 30.5015 56.3025 30.5015 57.0232V63.2131C30.5015 63.8914 29.9503 64.4426 29.272 64.4426ZM24.2692 49.5615H28.0001V45.8307H24.2692V49.5615ZM29.272 52.0205H23.0398C22.3614 52.0205 21.8103 51.4693 21.8103 50.791V44.6012C21.8103 43.8804 22.3614 43.3293 23.0398 43.3293H29.272C29.9503 43.3293 30.5015 43.8804 30.5015 44.6012V50.791C30.5015 51.4693 29.9503 52.0205 29.272 52.0205ZM11.8472 61.9836H15.578V58.2527H11.8472V61.9836ZM16.8499 64.4426H10.6177C9.93934 64.4426 9.38819 63.8914 9.38819 63.2131V57.0232C9.38819 56.3025 9.93934 55.7514 10.6177 55.7514H16.8499C17.5283 55.7514 18.0794 56.3025 18.0794 57.0232V63.2131C18.0794 63.8914 17.5283 64.4426 16.8499 64.4426ZM11.8472 49.5615H15.578V45.8307H11.8472V49.5615ZM16.8499 52.0205H10.6177C9.93934 52.0205 9.38819 51.4693 9.38819 50.791V44.6012C9.38819 43.8804 9.93934 43.3293 10.6177 43.3293H16.8499C17.5283 43.3293 18.0794 43.8804 18.0794 44.6012V50.791C18.0794 51.4693 17.5283 52.0205 16.8499 52.0205ZM66.5382 73.7697H57.2111H44.789H35.4618H4.42784C3.87669 73.7697 3.41033 73.9817 3.11356 74.3209C2.77439 74.66 2.56241 75.1264 2.56241 75.6352V77.5006H99.4376V75.6352C99.4376 75.1688 99.2256 74.7024 98.9289 74.3633L98.8865 74.3209C98.5473 73.9817 98.0809 73.7697 97.5722 73.7697H66.5382ZM34.2323 71.3108V36.5035H5.65733V71.3108H34.2323ZM50.9788 30.9072C52.6323 30.9072 54.0737 31.5855 55.176 32.6454C56.2359 33.7053 56.8719 35.1892 56.8719 36.8003C56.8719 38.4537 56.2359 39.9376 55.176 40.9975C54.0737 42.0574 52.6323 42.7357 50.9788 42.7357C49.3678 42.7357 47.8839 42.0574 46.824 40.9975C45.7641 39.9376 45.0858 38.4537 45.0858 36.8003C45.0858 35.1892 45.7641 33.7053 46.824 32.6454C47.8839 31.5855 49.3678 30.9072 50.9788 30.9072ZM53.3954 34.4261C52.8019 33.7901 51.9539 33.4086 50.9788 33.4086C50.0461 33.4086 49.1982 33.7901 48.5622 34.3837C47.9687 35.0196 47.5871 35.8676 47.5871 36.8003C47.5871 37.7754 47.9687 38.6233 48.5622 39.2169C49.1982 39.8528 50.0461 40.2344 50.9788 40.2344C51.9539 40.2344 52.8019 39.8528 53.3954 39.2592V39.2169C54.0313 38.6233 54.4129 37.7754 54.4129 36.8003C54.4129 35.8676 54.0313 35.0196 53.3954 34.4261ZM36.6913 71.3108H43.5171V60.1182C43.5171 58.0831 44.365 56.2601 45.6369 54.9034L45.7217 54.861C47.0784 53.5044 48.9438 52.6564 50.9788 52.6564C53.0562 52.6564 54.9217 53.5044 56.2359 54.861C57.5926 56.2177 58.4405 58.0407 58.4405 60.1182V71.3108H65.2663V35.274V29.6353L50.9788 18.2308L36.6913 29.6353V35.274V71.3108ZM46.0185 71.3108H55.9392V60.1182C55.9392 58.7615 55.388 57.4896 54.4977 56.5993C53.6074 55.709 52.3355 55.1578 50.9788 55.1578C49.6221 55.1578 48.3927 55.709 47.5023 56.5993L47.4175 56.6417C46.5696 57.532 46.0185 58.7615 46.0185 60.1182V71.3108ZM52.2507 4.19762V9.9635C54.1161 10.8962 55.8968 10.3875 57.6774 9.87871C59.1189 9.49714 60.6027 9.11558 62.1714 9.20037V2.50178C60.8995 2.37459 59.6276 2.75615 58.3558 3.09532C56.4055 3.64647 54.4553 4.15523 52.2507 3.47689V4.19762Z" fill="#161616" stroke="#161616" stroke-width="2" mask="url(#path-1-inside-1_43_1894)"/>
</g>
<defs>
<clipPath id="clip0_43_1894">
<rect width="101.878" height="80" fill="white" transform="translate(0.0610352)"/>
</clipPath>
</defs>
</svg>
