<svg width="82" height="82" viewBox="0 0 82 82" fill="none" xmlns="http://www.w3.org/2000/svg">
<path d="M79.75 78.5H2.25C1.91848 78.5 1.60054 78.6317 1.36612 78.8661C1.1317 79.1005 1 79.4185 1 79.75C1 80.0815 1.1317 80.3995 1.36612 80.6339C1.60054 80.8683 1.91848 81 2.25 81H79.75C80.0815 81 80.3995 80.8683 80.6339 80.6339C80.8683 80.3995 81 80.0815 81 79.75C81 79.4185 80.8683 79.1005 80.6339 78.8661C80.3995 78.6317 80.0815 78.5 79.75 78.5Z" fill="#161616" stroke="black" stroke-width="0.4"/>
<path d="M27.25 75.3743C29.4822 75.3409 31.7117 75.5436 33.9013 75.9792C36.2386 76.441 38.6178 76.6572 41 76.6244C43.3822 76.6572 45.7614 76.441 48.0987 75.9792C50.2883 75.5436 52.5178 75.3409 54.75 75.3743C55.0815 75.3743 55.3995 75.2427 55.6339 75.0082C55.8683 74.7738 56 74.4559 56 74.1243C56 73.7928 55.8683 73.4749 55.6339 73.2405C55.3995 73.006 55.0815 72.8743 54.75 72.8743C52.3678 72.8415 49.9886 73.0577 47.6513 73.5195C45.4617 73.9551 43.2322 74.1578 41 74.1243C38.7678 74.1578 36.5383 73.9551 34.3487 73.5195C32.0114 73.0577 29.6322 72.8415 27.25 72.8743C26.9185 72.8743 26.6005 73.006 26.3661 73.2405C26.1317 73.4749 26 73.7928 26 74.1243C26 74.4559 26.1317 74.7738 26.3661 75.0082C26.6005 75.2427 26.9185 75.3743 27.25 75.3743Z" fill="#161616" stroke="black" stroke-width="0.4"/>
<path d="M27.25 70.3744C29.4822 70.3409 31.7117 70.5436 33.9013 70.9792C36.2386 71.441 38.6178 71.6572 41 71.6244C43.3822 71.6572 45.7614 71.441 48.0987 70.9792C50.2883 70.5436 52.5178 70.3409 54.75 70.3744C55.0815 70.3744 55.3995 70.2427 55.6339 70.0082C55.8683 69.7738 56 69.4559 56 69.1243C56 68.7928 55.8683 68.4749 55.6339 68.2405C55.3995 68.006 55.0815 67.8743 54.75 67.8743C52.3678 67.8415 49.9886 68.0577 47.6513 68.5195C45.4617 68.9551 43.2322 69.1578 41 69.1243C38.7678 69.1578 36.5383 68.9551 34.3487 68.5195C32.0114 68.0577 29.6322 67.8415 27.25 67.8743C26.9185 67.8743 26.6005 68.006 26.3661 68.2405C26.1317 68.4749 26 68.7928 26 69.1243C26 69.4559 26.1317 69.7738 26.3661 70.0082C26.6005 70.2427 26.9185 70.3744 27.25 70.3744Z" fill="#161616" stroke="black" stroke-width="0.4"/>
<path d="M27.25 65.3744C29.4822 65.3409 31.7117 65.5436 33.9013 65.9792C36.2386 66.441 38.6178 66.6572 41 66.6244C43.3822 66.6572 45.7614 66.441 48.0987 65.9792C50.2883 65.5436 52.5178 65.3409 54.75 65.3744C55.0815 65.3744 55.3995 65.2427 55.6339 65.0082C55.8683 64.7738 56 64.4559 56 64.1243C56 63.7928 55.8683 63.4749 55.6339 63.2405C55.3995 63.006 55.0815 62.8743 54.75 62.8743C52.3678 62.8415 49.9886 63.0577 47.6513 63.5195C45.4617 63.9551 43.2322 64.1578 41 64.1243C38.7678 64.1578 36.5383 63.9551 34.3487 63.5195C32.0114 63.0577 29.6322 62.8415 27.25 62.8743C26.9185 62.8743 26.6005 63.006 26.3661 63.2405C26.1317 63.4749 26 63.7928 26 64.1243C26 64.4559 26.1317 64.7738 26.3661 65.0082C26.6005 65.2427 26.9185 65.3744 27.25 65.3744Z" fill="#161616" stroke="black" stroke-width="0.4"/>
<path d="M27.25 60.3744C29.4822 60.3409 31.7117 60.5436 33.9013 60.9792C36.2386 61.441 38.6178 61.6572 41 61.6244C43.3822 61.6572 45.7614 61.441 48.0987 60.9792C50.2883 60.5436 52.5178 60.3409 54.75 60.3744C55.0815 60.3744 55.3995 60.2427 55.6339 60.0082C55.8683 59.7738 56 59.4559 56 59.1243C56 58.7928 55.8683 58.4749 55.6339 58.2405C55.3995 58.006 55.0815 57.8743 54.75 57.8743C52.3678 57.8415 49.9886 58.0577 47.6513 58.5195C45.4617 58.9551 43.2322 59.1578 41 59.1243C38.7678 59.1578 36.5383 58.9551 34.3487 58.5195C32.0114 58.0577 29.6322 57.8415 27.25 57.8743C26.9185 57.8743 26.6005 58.006 26.3661 58.2405C26.1317 58.4749 26 58.7928 26 59.1243C26 59.4559 26.1317 59.7738 26.3661 60.0082C26.6005 60.2427 26.9185 60.3744 27.25 60.3744Z" fill="#161616" stroke="black" stroke-width="0.4"/>
<path d="M79.75 57.8741C77.9598 57.8421 76.1743 58.0651 74.447 58.5363C71.3647 59.32 68.1353 59.32 65.053 58.5363C63.3257 58.0651 61.5401 57.8421 59.75 57.8741C59.4185 57.8741 59.1005 58.0058 58.8661 58.2402C58.6317 58.4746 58.5 58.7926 58.5 59.1241C58.5 59.4556 58.6317 59.7736 58.8661 60.008C59.1005 60.2424 59.4185 60.3741 59.75 60.3741C61.3358 60.3435 62.9176 60.5415 64.447 60.9619C67.9272 61.8448 71.5728 61.8448 75.053 60.9619C76.5824 60.5415 78.1642 60.3435 79.75 60.3741C80.0815 60.3741 80.3995 60.2424 80.6339 60.008C80.8683 59.7736 81 59.4556 81 59.1241C81 58.7926 80.8683 58.4746 80.6339 58.2402C80.3995 58.0058 80.0815 57.8741 79.75 57.8741Z" fill="#161616" stroke="black" stroke-width="0.4"/>
<path d="M79.75 62.8741C77.9598 62.8421 76.1743 63.0651 74.447 63.5363C71.3647 64.32 68.1353 64.32 65.053 63.5363C63.3257 63.0651 61.5401 62.8421 59.75 62.8741C59.4185 62.8741 59.1005 63.0058 58.8661 63.2402C58.6317 63.4746 58.5 63.7926 58.5 64.1241C58.5 64.4556 58.6317 64.7736 58.8661 65.008C59.1005 65.2424 59.4185 65.3741 59.75 65.3741C61.3358 65.3435 62.9176 65.5415 64.447 65.9619C67.9272 66.8448 71.5728 66.8448 75.053 65.9619C76.5824 65.5415 78.1642 65.3435 79.75 65.3741C80.0815 65.3741 80.3995 65.2424 80.6339 65.008C80.8683 64.7736 81 64.4556 81 64.1241C81 63.7926 80.8683 63.4746 80.6339 63.2402C80.3995 63.0058 80.0815 62.8741 79.75 62.8741Z" fill="#161616" stroke="black" stroke-width="0.4"/>
<path d="M79.75 67.8741C77.9598 67.8421 76.1743 68.0651 74.447 68.5363C71.3647 69.32 68.1353 69.32 65.053 68.5363C63.3257 68.0651 61.5401 67.8421 59.75 67.8741C59.4185 67.8741 59.1005 68.0058 58.8661 68.2402C58.6317 68.4746 58.5 68.7926 58.5 69.1241C58.5 69.4556 58.6317 69.7736 58.8661 70.008C59.1005 70.2424 59.4185 70.3741 59.75 70.3741C61.3358 70.3435 62.9176 70.5415 64.447 70.9619C67.9272 71.8448 71.5728 71.8448 75.053 70.9619C76.5824 70.5415 78.1642 70.3435 79.75 70.3741C80.0815 70.3741 80.3995 70.2424 80.6339 70.008C80.8683 69.7736 81 69.4556 81 69.1241C81 68.7926 80.8683 68.4746 80.6339 68.2402C80.3995 68.0058 80.0815 67.8741 79.75 67.8741Z" fill="#161616" stroke="black" stroke-width="0.4"/>
<path d="M79.75 72.8741C77.9598 72.8421 76.1743 73.0651 74.447 73.5363C71.3647 74.32 68.1353 74.32 65.053 73.5363C63.3257 73.0651 61.5401 72.8421 59.75 72.8741C59.4185 72.8741 59.1005 73.0058 58.8661 73.2402C58.6317 73.4746 58.5 73.7926 58.5 74.1241C58.5 74.4556 58.6317 74.7736 58.8661 75.008C59.1005 75.2424 59.4185 75.3741 59.75 75.3741C61.3358 75.3435 62.9176 75.5415 64.447 75.9619C67.9272 76.8448 71.5728 76.8448 75.053 75.9619C76.5824 75.5415 78.1642 75.3435 79.75 75.3741C80.0815 75.3741 80.3995 75.2424 80.6339 75.008C80.8683 74.7736 81 74.4556 81 74.1241C81 73.7926 80.8683 73.4746 80.6339 73.2402C80.3995 73.0058 80.0815 72.8741 79.75 72.8741Z" fill="#161616" stroke="black" stroke-width="0.4"/>
<path d="M2.25 60.3741C3.83575 60.3435 5.41764 60.5415 6.94696 60.9619C8.67427 61.4331 10.4599 61.6561 12.25 61.6241C14.0401 61.6561 15.8257 61.4331 17.553 60.9619C19.0824 60.5415 20.6642 60.3435 22.25 60.3741C22.5815 60.3741 22.8995 60.2424 23.1339 60.008C23.3683 59.7736 23.5 59.4556 23.5 59.1241C23.5 58.7926 23.3683 58.4746 23.1339 58.2402C22.8995 58.0058 22.5815 57.8741 22.25 57.8741C20.4599 57.8421 18.6743 58.0651 16.947 58.5363C15.4176 58.9567 13.8358 59.1547 12.25 59.1241C10.6642 59.1547 9.08236 58.9567 7.55304 58.5363C5.82573 58.0651 4.04014 57.8421 2.25 57.8741C1.91848 57.8741 1.60054 58.0058 1.36612 58.2402C1.1317 58.4746 1 58.7926 1 59.1241C1 59.4556 1.1317 59.7736 1.36612 60.008C1.60054 60.2424 1.91848 60.3741 2.25 60.3741Z" fill="#161616" stroke="black" stroke-width="0.4"/>
<path d="M2.25 65.3741C3.83575 65.3435 5.41764 65.5415 6.94696 65.9619C8.67427 66.4331 10.4599 66.6561 12.25 66.6241C14.0401 66.6561 15.8257 66.4331 17.553 65.9619C19.0824 65.5415 20.6642 65.3435 22.25 65.3741C22.5815 65.3741 22.8995 65.2424 23.1339 65.008C23.3683 64.7736 23.5 64.4556 23.5 64.1241C23.5 63.7926 23.3683 63.4746 23.1339 63.2402C22.8995 63.0058 22.5815 62.8741 22.25 62.8741C20.4599 62.8421 18.6743 63.0651 16.947 63.5363C15.4176 63.9567 13.8358 64.1547 12.25 64.1241C10.6642 64.1547 9.08236 63.9567 7.55304 63.5363C5.82573 63.0651 4.04014 62.8421 2.25 62.8741C1.91848 62.8741 1.60054 63.0058 1.36612 63.2402C1.1317 63.4746 1 63.7926 1 64.1241C1 64.4556 1.1317 64.7736 1.36612 65.008C1.60054 65.2424 1.91848 65.3741 2.25 65.3741Z" fill="#161616" stroke="black" stroke-width="0.4"/>
<path d="M2.25 70.3741C3.83575 70.3435 5.41764 70.5415 6.94696 70.9619C8.67427 71.4331 10.4599 71.6561 12.25 71.6241C14.0401 71.6561 15.8257 71.4331 17.553 70.9619C19.0824 70.5415 20.6642 70.3435 22.25 70.3741C22.5815 70.3741 22.8995 70.2424 23.1339 70.008C23.3683 69.7736 23.5 69.4556 23.5 69.1241C23.5 68.7926 23.3683 68.4746 23.1339 68.2402C22.8995 68.0058 22.5815 67.8741 22.25 67.8741C20.4599 67.8421 18.6743 68.0651 16.947 68.5363C15.4176 68.9567 13.8358 69.1547 12.25 69.1241C10.6642 69.1547 9.08236 68.9567 7.55304 68.5363C5.82573 68.0651 4.04014 67.8421 2.25 67.8741C1.91848 67.8741 1.60054 68.0058 1.36612 68.2402C1.1317 68.4746 1 68.7926 1 69.1241C1 69.4556 1.1317 69.7736 1.36612 70.008C1.60054 70.2424 1.91848 70.3741 2.25 70.3741Z" fill="#161616" stroke="black" stroke-width="0.4"/>
<path d="M2.25 75.3741C3.83575 75.3435 5.41764 75.5415 6.94696 75.9619C8.67427 76.4331 10.4599 76.6561 12.25 76.6241C14.0401 76.6561 15.8257 76.4331 17.553 75.9619C19.0824 75.5415 20.6642 75.3435 22.25 75.3741C22.5815 75.3741 22.8995 75.2424 23.1339 75.008C23.3683 74.7736 23.5 74.4556 23.5 74.1241C23.5 73.7926 23.3683 73.4746 23.1339 73.2402C22.8995 73.0058 22.5815 72.8741 22.25 72.8741C20.4599 72.8421 18.6743 73.0651 16.947 73.5363C15.4176 73.9567 13.8358 74.1547 12.25 74.1241C10.6642 74.1547 9.08236 73.9567 7.55304 73.5363C5.82573 73.0651 4.04014 72.8421 2.25 72.8741C1.91848 72.8741 1.60054 73.0058 1.36612 73.2402C1.1317 73.4746 1 73.7926 1 74.1241C1 74.4556 1.1317 74.7736 1.36612 75.008C1.60054 75.2424 1.91848 75.3741 2.25 75.3741Z" fill="#161616" stroke="black" stroke-width="0.4"/>
<path d="M46.8837 1.36621C46.7677 1.25011 46.6299 1.15801 46.4782 1.09518C46.3266 1.03234 46.1641 1 45.9999 1C45.8358 1 45.6732 1.03234 45.5216 1.09518C45.3699 1.15801 45.2322 1.25011 45.1161 1.36621L33.4999 12.9824L25.0087 4.49121C24.8927 4.37511 24.7549 4.28301 24.6032 4.22018C24.4516 4.15734 24.2891 4.125 24.1249 4.125C23.9608 4.125 23.7982 4.15734 23.6466 4.22018C23.4949 4.28301 23.3572 4.37511 23.2411 4.49121L17.7827 9.94962C18.1862 10.8474 18.4201 11.812 18.4726 12.7949L24.1249 7.14258L32.6161 15.6338C32.7322 15.7499 32.8699 15.842 33.0216 15.9048C33.1732 15.9677 33.3358 16 33.4999 16C33.6641 16 33.8266 15.9677 33.9782 15.9048C34.1299 15.842 34.2677 15.7499 34.3837 15.6338L45.9999 4.01758L63.5626 21.5803C63.4367 20.4622 63.5007 19.331 63.7518 18.2343L46.8837 1.36621Z" fill="#161616" stroke="black" stroke-width="0.4"/>
<path d="M74.5776 5.61925C74.2411 5.45846 73.8729 5.375 73.4999 5.375C73.1269 5.375 72.7587 5.45846 72.4221 5.61925C71.3497 6.1316 65.9999 8.90573 65.9999 13.2108C65.9982 14.474 66.2926 15.72 66.8596 16.8488C66.2942 17.9783 65.9999 19.2239 65.9999 20.4869C65.9999 21.7499 66.2942 22.9955 66.8596 24.125C66.2942 25.2544 65.9999 26.5 65.9999 27.763C65.9999 29.0261 66.2942 30.2717 66.8596 31.4011C66.2926 32.5299 65.9982 33.7759 65.9999 35.0392C65.973 36.8538 66.584 38.6204 67.7261 40.0308C68.8683 41.4412 70.4693 42.406 72.2499 42.757V45.6356H69.7499V44.3075C69.7499 43.976 69.6182 43.658 69.3838 43.4236C69.1493 43.1892 68.8314 43.0575 68.4999 43.0575C68.1684 43.0575 67.8504 43.1892 67.616 43.4236C67.3816 43.658 67.2499 43.976 67.2499 44.3075V45.6356H64.7499V44.3075C64.7499 43.976 64.6182 43.658 64.3838 43.4236C64.1493 43.1892 63.8314 43.0575 63.4999 43.0575C63.1684 43.0575 62.8504 43.1892 62.616 43.4236C62.3816 43.658 62.2499 43.976 62.2499 44.3075V45.6356H59.7499V44.3075C59.7499 43.976 59.6182 43.658 59.3838 43.4236C59.1493 43.1892 58.8314 43.0575 58.4999 43.0575C58.1684 43.0575 57.8504 43.1892 57.616 43.4236C57.3816 43.658 57.2499 43.976 57.2499 44.3075V45.6356H54.7499V39.125H57.2499C57.5814 39.125 57.8993 38.9933 58.1337 38.7589C58.3682 38.5244 58.4999 38.2065 58.4999 37.875C58.4999 28.8125 42.494 15.0088 41.8126 14.4253C41.5861 14.2315 41.2979 14.125 40.9999 14.125C40.7018 14.125 40.4136 14.2315 40.1872 14.4253C39.5057 15.0088 23.4999 28.8125 23.4999 37.875C23.4999 38.2065 23.6316 38.5244 23.866 38.7589C24.1004 38.9933 24.4184 39.125 24.7499 39.125H27.2499V45.6356H24.7499V44.3075C24.7499 43.976 24.6182 43.658 24.3838 43.4236C24.1493 43.1892 23.8314 43.0575 23.4999 43.0575C23.1684 43.0575 22.8504 43.1892 22.616 43.4236C22.3816 43.658 22.2499 43.976 22.2499 44.3075V45.6356H19.7499V44.3075C19.7499 43.976 19.6182 43.658 19.3838 43.4236C19.1493 43.1892 18.8314 43.0575 18.4999 43.0575C18.1684 43.0575 17.8504 43.1892 17.616 43.4236C17.3816 43.658 17.2499 43.976 17.2499 44.3075V45.6356H14.7499V44.3075C14.7499 43.976 14.6182 43.658 14.3838 43.4236C14.1493 43.1892 13.8314 43.0575 13.4999 43.0575C13.1684 43.0575 12.8504 43.1892 12.616 43.4236C12.3816 43.658 12.2499 43.976 12.2499 44.3075V45.6356H9.74987V42.757C11.5305 42.406 13.1315 41.4412 14.2736 40.0308C15.4158 38.6204 16.0267 36.8538 15.9999 35.0392C16.0016 33.776 15.7071 32.5299 15.1402 31.4011C15.7055 30.2717 15.9999 29.0261 15.9999 27.763C15.9999 26.5 15.7055 25.2544 15.1402 24.125C15.7055 22.9955 15.9999 21.7499 15.9999 20.4869C15.9999 19.2239 15.7055 17.9783 15.1402 16.8488C15.7071 15.72 16.0016 14.474 15.9999 13.2108C15.9999 8.90573 10.6501 6.1316 9.57764 5.61925C9.24111 5.45846 8.87285 5.375 8.49988 5.375C8.1269 5.375 7.75865 5.45846 7.42211 5.61925C6.34968 6.1316 0.999872 8.90573 0.999872 13.2108C0.998174 14.474 1.29262 15.72 1.85959 16.8488C1.29423 17.9783 0.999873 19.2239 0.999873 20.4869C0.999873 21.7499 1.29423 22.9955 1.85959 24.125C1.29423 25.2544 0.999872 26.5 0.999872 27.763C0.999872 29.0261 1.29423 30.2717 1.85959 31.4011C1.29263 32.5299 0.998182 33.7759 0.999872 35.0392C0.973029 36.8538 1.58395 38.6204 2.72612 40.0308C3.86829 41.4412 5.46925 42.406 7.24987 42.757V52.875H2.24987C1.91835 52.875 1.60041 53.0067 1.36599 53.2411C1.13157 53.4755 0.999872 53.7935 0.999872 54.125C0.999872 54.4565 1.13157 54.7745 1.36599 55.0089C1.60041 55.2433 1.91835 55.375 2.24987 55.375H79.7499C80.0814 55.375 80.3993 55.2433 80.6338 55.0089C80.8682 54.7745 80.9999 54.4565 80.9999 54.125C80.9999 53.7935 80.8682 53.4755 80.6338 53.2411C80.3993 53.0067 80.0814 52.875 79.7499 52.875H74.7499V42.757C76.5305 42.406 78.1315 41.4412 79.2736 40.0308C80.4158 38.6204 81.0267 36.8538 80.9999 35.0392C81.0016 33.776 80.7071 32.5299 80.1402 31.4011C80.7055 30.2717 80.9999 29.0261 80.9999 27.763C80.9999 26.5 80.7055 25.2544 80.1402 24.125C80.7055 22.9955 80.9999 21.7499 80.9999 20.4869C80.9999 19.2239 80.7055 17.9783 80.1402 16.8488C80.7071 15.72 81.0016 14.474 80.9999 13.2108C80.9999 8.90573 75.6501 6.1316 74.5776 5.61925ZM8.49987 25.6875C8.16836 25.6875 7.85042 25.8192 7.61601 26.0536C7.38159 26.288 7.24989 26.606 7.24987 26.9375V40.2001C6.14763 39.8663 5.18468 39.1814 4.5077 38.2497C3.83072 37.318 3.47681 36.1906 3.49987 35.0391C3.49357 33.7029 3.97321 32.41 4.84943 31.4011C3.97871 30.389 3.49987 29.0982 3.49987 27.763C3.49987 26.4279 3.97871 25.1371 4.84943 24.125C3.97871 23.1128 3.49987 21.822 3.49987 20.4869C3.49987 19.1518 3.97871 17.861 4.84943 16.8488C3.97321 15.84 3.49357 14.547 3.49987 13.2108C3.49987 10.2639 8.49987 7.875 8.49987 7.875C8.49987 7.875 13.4999 10.2639 13.4999 13.2108C13.5062 14.547 13.0265 15.84 12.1503 16.8488C13.021 17.861 13.4999 19.1518 13.4999 20.4869C13.4999 21.822 13.021 23.1128 12.1503 24.125C13.021 25.1371 13.4999 26.4279 13.4999 27.763C13.4999 29.0982 13.021 30.389 12.1503 31.4011C13.0265 32.41 13.5062 33.7029 13.4999 35.0392C13.5229 36.1906 13.169 37.318 12.492 38.2497C11.8151 39.1814 10.8521 39.8663 9.74987 40.2001V26.9375C9.74986 26.606 9.61815 26.288 9.38374 26.0536C9.14932 25.8192 8.83139 25.6875 8.49987 25.6875ZM12.2499 52.875H9.74987V48.1356H12.2499V52.875ZM17.2499 52.875H14.7499V48.1356H17.2499V52.875ZM22.2499 52.875H19.7499V48.1356H22.2499V52.875ZM27.2499 52.875H24.7499V48.1356H27.2499V52.875ZM41.0002 17.0352C44.4266 20.0852 50.5089 26.1444 53.7765 31.625H28.2245C31.4923 26.1456 37.5741 20.0858 41.0002 17.0352ZM26.1229 36.625C26.2961 35.7645 26.5647 34.926 26.9236 34.125H55.0768C55.4356 34.926 55.704 35.7645 55.8772 36.625H26.1229ZM44.7499 52.875H37.2499V44.125H44.7499V52.875ZM52.2499 52.875H47.2499V42.875C47.2499 42.5435 47.1182 42.2255 46.8837 41.9911C46.6493 41.7567 46.3314 41.625 45.9999 41.625H35.9999C35.6684 41.625 35.3504 41.7567 35.116 41.9911C34.8816 42.2255 34.7499 42.5435 34.7499 42.875V52.875H29.7499V39.125H52.2499V52.875ZM57.2499 52.875H54.7499V48.1356H57.2499V52.875ZM62.2499 52.875H59.7499V48.1356H62.2499V52.875ZM67.2499 52.875H64.7499V48.1356H67.2499V52.875ZM72.2499 52.875H69.7499V48.1356H72.2499V52.875ZM78.4999 20.4869C78.5062 21.8232 78.0265 23.1161 77.1503 24.125C78.021 25.1371 78.4999 26.4279 78.4999 27.763C78.4999 29.0982 78.021 30.389 77.1503 31.4011C78.0265 32.41 78.5062 33.7029 78.4999 35.0392C78.5229 36.1906 78.169 37.318 77.4921 38.2497C76.8151 39.1814 75.8521 39.8663 74.7499 40.2001V26.9375C74.7499 26.606 74.6182 26.288 74.3838 26.0536C74.1493 25.8192 73.8314 25.6875 73.4999 25.6875C73.1684 25.6875 72.8504 25.8192 72.616 26.0536C72.3816 26.288 72.2499 26.606 72.2499 26.9375V40.2001C71.1476 39.8663 70.1847 39.1814 69.5077 38.2497C68.8307 37.318 68.4768 36.1906 68.4999 35.0391C68.4936 33.7029 68.9732 32.41 69.8494 31.4011C68.9787 30.389 68.4999 29.0982 68.4999 27.763C68.4999 26.4279 68.9787 25.1371 69.8494 24.125C68.9787 23.1128 68.4999 21.822 68.4999 20.4869C68.4999 19.1518 68.9787 17.861 69.8494 16.8488C68.9732 15.84 68.4936 14.547 68.4999 13.2108C68.4999 10.2639 73.4999 7.875 73.4999 7.875C73.4999 7.875 78.4999 10.2639 78.4999 13.2108C78.5062 14.547 78.0265 15.84 77.1503 16.8488C78.0265 17.8577 78.5062 19.1507 78.4999 20.4869Z" fill="#161616" stroke="black" stroke-width="0.4"/>
</svg>
