<svg width="80" height="80" viewBox="0 0 80 80" fill="none" xmlns="http://www.w3.org/2000/svg">
<g clip-path="url(#clip0_43_2642)">
<path d="M78.6667 72H77.3333V68C77.3333 67.6464 77.1929 67.3072 76.9428 67.0572C76.6928 66.8071 76.3536 66.6667 76 66.6667V24H77.3333C77.687 24 78.0261 23.8595 78.2761 23.6095C78.5262 23.3594 78.6667 23.0203 78.6667 22.6667V17.3333C78.6667 16.9797 78.5262 16.6406 78.2761 16.3905C78.0261 16.1405 77.687 16 77.3333 16H60V8H62.6667C63.0203 8 63.3594 7.85952 63.6095 7.60948C63.8595 7.35943 64 7.02029 64 6.66667V1.33333C64 0.979711 63.8595 0.640573 63.6095 0.390524C63.3594 0.140476 63.0203 0 62.6667 0H17.3333C16.9797 0 16.6406 0.140476 16.3905 0.390524C16.1405 0.640573 16 0.979711 16 1.33333V6.66667C16 7.02029 16.1405 7.35943 16.3905 7.60948C16.6406 7.85952 16.9797 8 17.3333 8H20V16H2.66667C2.31304 16 1.97391 16.1405 1.72386 16.3905C1.47381 16.6406 1.33333 16.9797 1.33333 17.3333V22.6667C1.33333 23.0203 1.47381 23.3594 1.72386 23.6095C1.97391 23.8595 2.31304 24 2.66667 24H4V66.6667C3.64638 66.6667 3.30724 66.8071 3.05719 67.0572C2.80714 67.3072 2.66667 67.6464 2.66667 68V72H1.33333C0.979711 72 0.640573 72.1405 0.390524 72.3905C0.140476 72.6406 0 72.9797 0 73.3333V78.6667C0 79.0203 0.140476 79.3594 0.390524 79.6095C0.640573 79.8595 0.979711 80 1.33333 80H78.6667C79.0203 80 79.3594 79.8595 79.6095 79.6095C79.8595 79.3594 80 79.0203 80 78.6667V73.3333C80 72.9797 79.8595 72.6406 79.6095 72.3905C79.3594 72.1405 79.0203 72 78.6667 72ZM73.3333 66.6667H60V24H73.3333V66.6667ZM76 18.6667V21.3333H60V18.6667H76ZM18.6667 2.66667H61.3333V5.33333H18.6667V2.66667ZM57.3333 8V66.6667H49.3333V57.3333C49.3333 54.858 48.35 52.484 46.5997 50.7337C44.8493 48.9833 42.4754 48 40 48C37.5246 48 35.1507 48.9833 33.4003 50.7337C31.65 52.484 30.6667 54.858 30.6667 57.3333V66.6667H22.6667V8H57.3333ZM46.6667 66.6667H33.3333V57.3333C33.3333 55.5652 34.0357 53.8695 35.286 52.6193C36.5362 51.369 38.2319 50.6667 40 50.6667C41.7681 50.6667 43.4638 51.369 44.714 52.6193C45.9643 53.8695 46.6667 55.5652 46.6667 57.3333V66.6667ZM4 18.6667H20V21.3333H4V18.6667ZM6.66667 24H20V66.6667H6.66667V24ZM5.33333 69.3333H74.6667V72H5.33333V69.3333ZM77.3333 77.3333H2.66667V74.6667H77.3333V77.3333Z" fill="#212121" stroke="#212121" stroke-width="0.5"/>
<path d="M26.6666 21.334H31.9999C32.3535 21.334 32.6927 21.1935 32.9427 20.9435C33.1928 20.6934 33.3333 20.3543 33.3333 20.0006V14.6673C33.3333 14.3137 33.1928 13.9746 32.9427 13.7245C32.6927 13.4745 32.3535 13.334 31.9999 13.334H26.6666C26.313 13.334 25.9738 13.4745 25.7238 13.7245C25.4737 13.9746 25.3333 14.3137 25.3333 14.6673V20.0006C25.3333 20.3543 25.4737 20.6934 25.7238 20.9435C25.9738 21.1935 26.313 21.334 26.6666 21.334ZM27.9999 16.0007H30.6666V18.6673H27.9999V16.0007Z" fill="#212121"/>
<path d="M37.3333 21.334H42.6667C43.0203 21.334 43.3594 21.1935 43.6095 20.9435C43.8595 20.6934 44 20.3543 44 20.0006V14.6673C44 14.3137 43.8595 13.9746 43.6095 13.7245C43.3594 13.4745 43.0203 13.334 42.6667 13.334H37.3333C36.9797 13.334 36.6406 13.4745 36.3905 13.7245C36.1405 13.9746 36 14.3137 36 14.6673V20.0006C36 20.3543 36.1405 20.6934 36.3905 20.9435C36.6406 21.1935 36.9797 21.334 37.3333 21.334ZM38.6667 16.0007H41.3333V18.6673H38.6667V16.0007Z" fill="#212121"/>
<path d="M26.6666 32H31.9999C32.3535 32 32.6927 31.8595 32.9427 31.6095C33.1928 31.3594 33.3333 31.0203 33.3333 30.6667V25.3333C33.3333 24.9797 33.1928 24.6406 32.9427 24.3905C32.6927 24.1405 32.3535 24 31.9999 24H26.6666C26.313 24 25.9738 24.1405 25.7238 24.3905C25.4737 24.6406 25.3333 24.9797 25.3333 25.3333V30.6667C25.3333 31.0203 25.4737 31.3594 25.7238 31.6095C25.9738 31.8595 26.313 32 26.6666 32ZM27.9999 26.6667H30.6666V29.3333H27.9999V26.6667Z" fill="#212121"/>
<path d="M37.3333 32H42.6667C43.0203 32 43.3594 31.8595 43.6095 31.6095C43.8595 31.3594 44 31.0203 44 30.6667V25.3333C44 24.9797 43.8595 24.6406 43.6095 24.3905C43.3594 24.1405 43.0203 24 42.6667 24H37.3333C36.9797 24 36.6406 24.1405 36.3905 24.3905C36.1405 24.6406 36 24.9797 36 25.3333V30.6667C36 31.0203 36.1405 31.3594 36.3905 31.6095C36.6406 31.8595 36.9797 32 37.3333 32ZM38.6667 26.6667H41.3333V29.3333H38.6667V26.6667Z" fill="#212121"/>
<path d="M26.6666 42.668H31.9999C32.3535 42.668 32.6927 42.5275 32.9427 42.2774C33.1928 42.0274 33.3333 41.6883 33.3333 41.3346V36.0013C33.3333 35.6477 33.1928 35.3085 32.9427 35.0585C32.6927 34.8084 32.3535 34.668 31.9999 34.668H26.6666C26.313 34.668 25.9738 34.8084 25.7238 35.0585C25.4737 35.3085 25.3333 35.6477 25.3333 36.0013V41.3346C25.3333 41.6883 25.4737 42.0274 25.7238 42.2774C25.9738 42.5275 26.313 42.668 26.6666 42.668ZM27.9999 37.3346H30.6666V40.0013H27.9999V37.3346Z" fill="#212121"/>
<path d="M37.3333 42.668H42.6667C43.0203 42.668 43.3594 42.5275 43.6095 42.2774C43.8595 42.0274 44 41.6883 44 41.3346V36.0013C44 35.6477 43.8595 35.3085 43.6095 35.0585C43.3594 34.8084 43.0203 34.668 42.6667 34.668H37.3333C36.9797 34.668 36.6406 34.8084 36.3905 35.0585C36.1405 35.3085 36 35.6477 36 36.0013V41.3346C36 41.6883 36.1405 42.0274 36.3905 42.2774C36.6406 42.5275 36.9797 42.668 37.3333 42.668ZM38.6667 37.3346H41.3333V40.0013H38.6667V37.3346Z" fill="#212121"/>
<path d="M48.0001 21.334H53.3334C53.687 21.334 54.0262 21.1935 54.2762 20.9435C54.5263 20.6934 54.6668 20.3543 54.6668 20.0006V14.6673C54.6668 14.3137 54.5263 13.9746 54.2762 13.7245C54.0262 13.4745 53.687 13.334 53.3334 13.334H48.0001C47.6465 13.334 47.3073 13.4745 47.0573 13.7245C46.8072 13.9746 46.6667 14.3137 46.6667 14.6673V20.0006C46.6667 20.3543 46.8072 20.6934 47.0573 20.9435C47.3073 21.1935 47.6465 21.334 48.0001 21.334ZM49.3334 16.0007H52.0001V18.6673H49.3334V16.0007Z" fill="#212121"/>
<path d="M48.0001 32H53.3334C53.687 32 54.0262 31.8595 54.2762 31.6095C54.5263 31.3594 54.6668 31.0203 54.6668 30.6667V25.3333C54.6668 24.9797 54.5263 24.6406 54.2762 24.3905C54.0262 24.1405 53.687 24 53.3334 24H48.0001C47.6465 24 47.3073 24.1405 47.0573 24.3905C46.8072 24.6406 46.6667 24.9797 46.6667 25.3333V30.6667C46.6667 31.0203 46.8072 31.3594 47.0573 31.6095C47.3073 31.8595 47.6465 32 48.0001 32ZM49.3334 26.6667H52.0001V29.3333H49.3334V26.6667Z" fill="#212121"/>
<path d="M48.0001 42.668H53.3334C53.687 42.668 54.0262 42.5275 54.2762 42.2774C54.5263 42.0274 54.6668 41.6883 54.6668 41.3346V36.0013C54.6668 35.6477 54.5263 35.3085 54.2762 35.0585C54.0262 34.8084 53.687 34.668 53.3334 34.668H48.0001C47.6465 34.668 47.3073 34.8084 47.0573 35.0585C46.8072 35.3085 46.6667 35.6477 46.6667 36.0013V41.3346C46.6667 41.6883 46.8072 42.0274 47.0573 42.2774C47.3073 42.5275 47.6465 42.668 48.0001 42.668ZM49.3334 37.3346H52.0001V40.0013H49.3334V37.3346Z" fill="#212121"/>
<path d="M64 34.666H69.3333C69.6869 34.666 70.0261 34.5255 70.2761 34.2755C70.5262 34.0254 70.6666 33.6863 70.6666 33.3327V27.9993C70.6666 27.6457 70.5262 27.3066 70.2761 27.0565C70.0261 26.8065 69.6869 26.666 69.3333 26.666H64C63.6463 26.666 63.3072 26.8065 63.0571 27.0565C62.8071 27.3066 62.6666 27.6457 62.6666 27.9993V33.3327C62.6666 33.6863 62.8071 34.0254 63.0571 34.2755C63.3072 34.5255 63.6463 34.666 64 34.666ZM65.3333 29.3327H68V31.9993H65.3333V29.3327Z" fill="#212121"/>
<path d="M64 45.334H69.3333C69.6869 45.334 70.0261 45.1935 70.2761 44.9435C70.5262 44.6934 70.6666 44.3543 70.6666 44.0006V38.6673C70.6666 38.3137 70.5262 37.9746 70.2761 37.7245C70.0261 37.4745 69.6869 37.334 69.3333 37.334H64C63.6463 37.334 63.3072 37.4745 63.0571 37.7245C62.8071 37.9746 62.6666 38.3137 62.6666 38.6673V44.0006C62.6666 44.3543 62.8071 44.6934 63.0571 44.9435C63.3072 45.1935 63.6463 45.334 64 45.334ZM65.3333 40.0006H68V42.6673H65.3333V40.0006Z" fill="#212121"/>
<path d="M64 56H69.3333C69.6869 56 70.0261 55.8595 70.2761 55.6095C70.5262 55.3594 70.6666 55.0203 70.6666 54.6667V49.3333C70.6666 48.9797 70.5262 48.6406 70.2761 48.3905C70.0261 48.1405 69.6869 48 69.3333 48H64C63.6463 48 63.3072 48.1405 63.0571 48.3905C62.8071 48.6406 62.6666 48.9797 62.6666 49.3333V54.6667C62.6666 55.0203 62.8071 55.3594 63.0571 55.6095C63.3072 55.8595 63.6463 56 64 56ZM65.3333 50.6667H68V53.3333H65.3333V50.6667Z" fill="#212121"/>
<path d="M16 26.666H10.6667C10.3131 26.666 9.97395 26.8065 9.7239 27.0565C9.47385 27.3066 9.33337 27.6457 9.33337 27.9993V33.3327C9.33337 33.6863 9.47385 34.0254 9.7239 34.2755C9.97395 34.5255 10.3131 34.666 10.6667 34.666H16C16.3537 34.666 16.6928 34.5255 16.9429 34.2755C17.1929 34.0254 17.3334 33.6863 17.3334 33.3327V27.9993C17.3334 27.6457 17.1929 27.3066 16.9429 27.0565C16.6928 26.8065 16.3537 26.666 16 26.666ZM14.6667 31.9993H12V29.3327H14.6667V31.9993Z" fill="#212121"/>
<path d="M16 37.334H10.6667C10.3131 37.334 9.97395 37.4745 9.7239 37.7245C9.47385 37.9746 9.33337 38.3137 9.33337 38.6673V44.0006C9.33337 44.3543 9.47385 44.6934 9.7239 44.9435C9.97395 45.1935 10.3131 45.334 10.6667 45.334H16C16.3537 45.334 16.6928 45.1935 16.9429 44.9435C17.1929 44.6934 17.3334 44.3543 17.3334 44.0006V38.6673C17.3334 38.3137 17.1929 37.9746 16.9429 37.7245C16.6928 37.4745 16.3537 37.334 16 37.334ZM14.6667 42.6673H12V40.0006H14.6667V42.6673Z" fill="#212121"/>
<path d="M16 48H10.6667C10.3131 48 9.97395 48.1405 9.7239 48.3905C9.47385 48.6406 9.33337 48.9797 9.33337 49.3333V54.6667C9.33337 55.0203 9.47385 55.3594 9.7239 55.6095C9.97395 55.8595 10.3131 56 10.6667 56H16C16.3537 56 16.6928 55.8595 16.9429 55.6095C17.1929 55.3594 17.3334 55.0203 17.3334 54.6667V49.3333C17.3334 48.9797 17.1929 48.6406 16.9429 48.3905C16.6928 48.1405 16.3537 48 16 48ZM14.6667 53.3333H12V50.6667H14.6667V53.3333Z" fill="#212121"/>
</g>
<defs>
<clipPath id="clip0_43_2642">
<rect width="80" height="80" fill="white"/>
</clipPath>
</defs>
</svg>
