<svg width="97" height="96" viewBox="0 0 97 96" fill="none" xmlns="http://www.w3.org/2000/svg">
<rect x="0.5" width="96" height="96" rx="15" fill="#F9F9F9"/>
<g clip-path="url(#clip0_44_4375)">
<path d="M31.1492 52.9247C35.0693 52.9247 38.2577 49.7357 38.2577 45.8155C38.2577 41.8954 35.0687 38.707 31.1492 38.707C27.2297 38.707 24.04 41.8954 24.04 45.8155C24.04 49.7357 27.2291 52.9247 31.1492 52.9247ZM31.1492 41.698C33.4199 41.698 35.2667 43.5448 35.2667 45.8155C35.2667 48.0862 33.4199 49.933 31.1492 49.933C28.8785 49.933 27.0317 48.0856 27.0317 45.8155C27.0317 43.5455 28.8785 41.698 31.1492 41.698Z" fill="#4F1563"/>
<path d="M22.9917 63.3855C22.9917 60.3311 25.4762 57.8465 28.5307 57.8465H33.7671C33.9238 57.8465 34.0793 57.8528 34.2329 57.8662C34.6663 57.9036 35.0966 57.7583 35.4114 57.4689C35.7179 57.1865 35.8874 56.8006 35.8874 56.3824C35.8874 55.6196 35.3035 54.9653 34.5572 54.8935C34.297 54.8688 34.0336 54.8555 33.7671 54.8555H28.5307C23.8268 54.8548 20 58.6817 20 63.3855V64.0005H22.9917V63.3855Z" fill="#4F1563"/>
<path d="M36.418 64.0001H39.4096V60.3174C39.4096 56.865 42.2185 54.0561 45.6715 54.0561H51.446C54.8984 54.0561 57.7079 56.865 57.7079 60.3174V64.0001H60.6996V60.3174C60.6996 57.1944 59.1314 54.3011 56.5047 52.5787C54.9942 51.588 53.2452 51.0645 51.4467 51.0645H45.6722C42.8144 51.0645 40.1585 52.3654 38.3853 54.6336C37.0989 56.2792 36.4192 58.2447 36.4192 60.3174V64.0001H36.418Z" fill="#4F1563"/>
<path d="M68.5863 54.8555H63.3499C63.2033 54.8555 63.058 54.8599 62.9133 54.8675C62.1067 54.912 61.4746 55.5701 61.4746 56.3665C61.4746 56.7778 61.6453 57.1744 61.9436 57.4556C62.2438 57.738 62.6366 57.8795 63.0453 57.856C63.1462 57.8497 63.2478 57.8471 63.3499 57.8471H68.5863C71.6408 57.8471 74.1254 60.3317 74.1254 63.3862V64.0011H77.117V63.3862C77.117 58.6823 73.2902 54.8555 68.5863 54.8555Z" fill="#4F1563"/>
<path d="M65.9675 52.9247C69.8876 52.9247 73.0767 49.7357 73.0767 45.8155C73.0767 41.8954 69.8876 38.707 65.9675 38.707C62.0474 38.707 58.8584 41.8954 58.8584 45.8155C58.8584 49.7357 62.0481 52.9247 65.9675 52.9247ZM65.9675 41.698C68.2382 41.698 70.085 43.5448 70.085 45.8155C70.085 48.0862 68.2376 49.933 65.9675 49.933C63.6975 49.933 61.85 48.0856 61.85 45.8155C61.85 43.5455 63.6975 41.698 65.9675 41.698Z" fill="#4F1563"/>
<path d="M48.5583 49.8852C53.4888 49.8852 57.5009 45.8737 57.5009 40.9426C57.5009 36.0115 53.4894 32 48.5583 32C43.6272 32 39.6157 36.0115 39.6157 40.9426C39.6157 45.873 43.6272 49.8852 48.5583 49.8852ZM48.5583 34.991C51.8394 34.991 54.5092 37.6609 54.5092 40.9426C54.5092 44.2236 51.8394 46.8935 48.5583 46.8935C45.2766 46.8935 42.6067 44.2236 42.6067 40.9426C42.6067 37.6609 45.2766 34.991 48.5583 34.991Z" fill="#4F1563"/>
</g>
<defs>
<clipPath id="clip0_44_4375">
<rect width="57.1168" height="32" fill="white" transform="translate(20 32)"/>
</clipPath>
</defs>
</svg>
