<svg width="97" height="96" viewBox="0 0 97 96" fill="none" xmlns="http://www.w3.org/2000/svg">
<rect x="0.5" width="96" height="96" rx="15" fill="#F9F9F9"/>
<path d="M78.8917 67.127H17.4907C17.3615 67.127 17.2375 67.1783 17.1461 67.2697C17.0548 67.3611 17.0034 67.485 17.0034 67.6143C17.0034 67.7435 17.0548 67.8675 17.1461 67.9588C17.2375 68.0502 17.3615 68.1016 17.4907 68.1016H25.1649C25.1179 68.1746 25.0919 68.2591 25.0897 68.3459V71.5127C25.0897 71.642 25.141 71.7659 25.2324 71.8573C25.3238 71.9487 25.4478 72 25.577 72C25.7062 72 25.8302 71.9487 25.9216 71.8573C26.013 71.7659 26.0643 71.642 26.0643 71.5127V68.3459C26.0621 68.2591 26.0361 68.1746 25.9891 68.1016H40.241C40.1941 68.1746 40.168 68.2591 40.1659 68.3459V71.5127C40.1659 71.642 40.2172 71.7659 40.3086 71.8573C40.4 71.9487 40.5239 72 40.6532 72C40.7824 72 40.9064 71.9487 40.9977 71.8573C41.0891 71.7659 41.1405 71.642 41.1405 71.5127V68.3459C41.1383 68.2591 41.1123 68.1746 41.0653 68.1016H55.3171C55.2702 68.1746 55.2442 68.2591 55.242 68.3459V71.5127C55.242 71.642 55.2934 71.7659 55.3847 71.8573C55.4761 71.9487 55.6001 72 55.7293 72C55.8586 72 55.9825 71.9487 56.0739 71.8573C56.1653 71.7659 56.2166 71.642 56.2166 71.5127V68.3459C56.2145 68.2591 56.1885 68.1746 56.1415 68.1016H70.3933C70.3463 68.1746 70.3203 68.2591 70.3182 68.3459V71.5127C70.3182 71.642 70.3695 71.7659 70.4609 71.8573C70.5523 71.9487 70.6762 72 70.8055 72C70.9347 72 71.0587 71.9487 71.15 71.8573C71.2414 71.7659 71.2928 71.642 71.2928 71.5127V68.3459C71.2906 68.2591 71.2646 68.1746 71.2177 68.1016H78.8917C79.021 68.1016 79.1449 68.0502 79.2363 67.9588C79.3277 67.8675 79.3791 67.7435 79.3791 67.6143C79.3791 67.485 79.3277 67.3611 79.2363 67.2697C79.1449 67.1783 79.021 67.127 78.8917 67.127Z" fill="#4F1563" stroke="#4F1563" stroke-width="0.7"/>
<path d="M17.9431 61.8897C17.7235 62.0221 17.5322 62.1964 17.3801 62.4028C17.228 62.6091 17.1181 62.8435 17.0567 63.0924C16.9953 63.3413 16.9836 63.5998 17.0223 63.8533C17.061 64.1067 17.1493 64.35 17.2821 64.5693C17.4149 64.7885 17.5897 64.9794 17.7964 65.131C18.0032 65.2827 18.2378 65.392 18.4868 65.4528C18.7358 65.5136 18.9944 65.5247 19.2478 65.4855C19.5011 65.4462 19.7442 65.3574 19.9632 65.224L23.5498 63.1815L23.588 63.2464C23.631 63.3196 23.6924 63.3803 23.766 63.4224C23.8397 63.4646 23.9231 63.4868 24.008 63.4868H25.5308C25.6157 63.4868 25.6991 63.4646 25.7728 63.4224C25.8464 63.3803 25.9078 63.3196 25.9508 63.2464L25.9828 63.192L29.551 65.224C29.9931 65.4905 30.5228 65.5707 31.024 65.447C31.5252 65.3234 31.9568 65.006 32.2243 64.5646C32.4918 64.1231 32.5732 63.5935 32.4507 63.0921C32.3283 62.5906 32.0119 62.1582 31.5711 61.8897L28.1508 59.7682V56.7089L29.551 57.5505C29.9931 57.8169 30.5228 57.8971 31.024 57.7735C31.5252 57.6499 31.9568 57.3325 32.2243 56.891C32.4918 56.4495 32.5732 55.92 32.4507 55.4185C32.3283 54.9171 32.0119 54.4847 31.5711 54.2162L28.6077 52.5211C28.6008 52.5262 27.606 52.5312 27.5992 52.5363C27.4808 52.5022 27.3596 52.4783 27.2371 52.4648C27.2624 52.718 27.2606 57.5796 27.2593 59.3282H22.3343L22.3419 52.4975C22.029 52.4975 21.8462 52.5363 21.3894 52.5363L17.9431 54.2162C17.7235 54.3485 17.5322 54.5228 17.3801 54.7292C17.228 54.9356 17.1181 55.1699 17.0567 55.4188C16.9953 55.6677 16.9836 55.9263 17.0223 56.1797C17.061 56.4331 17.1493 56.6764 17.2821 56.8957C17.4149 57.115 17.5897 57.3059 17.7964 57.4575C18.0032 57.6091 18.2378 57.7184 18.4868 57.7793C18.7358 57.8401 18.9944 57.8512 19.2478 57.8119C19.5011 57.7726 19.7442 57.6838 19.9632 57.5504L21.4503 56.7394V59.7541L17.9431 61.8897ZM28.1813 53.4805L31.0826 55.06C31.2996 55.1974 31.4536 55.4149 31.5111 55.6652C31.5687 55.9155 31.5251 56.1785 31.3898 56.3968C31.2545 56.6151 31.0385 56.7712 30.7887 56.8312C30.539 56.8911 30.2756 56.8501 30.056 56.7169L30.0447 56.7101L30.0333 56.7035L28.1813 55.4577L28.1813 53.4805ZM21.3894 55.4437L19.4809 56.7035L19.4694 56.7101L19.4582 56.7169C19.2385 56.85 18.9753 56.891 18.7256 56.831C18.4759 56.7711 18.2599 56.615 18.1247 56.3967C17.9894 56.1784 17.9458 55.9156 18.0032 55.6653C18.0607 55.415 18.2146 55.1975 18.4315 55.0601L21.4199 53.4501L21.3894 55.4437ZM27.465 60.673L31.0754 62.7291C31.2944 62.8649 31.4506 63.0819 31.51 63.3326C31.5694 63.5833 31.5271 63.8474 31.3924 64.067C31.2576 64.2866 31.0414 64.4439 30.791 64.5045C30.5406 64.5652 30.2763 64.5242 30.056 64.3905L30.0448 64.3837L30.0333 64.3771L26.4771 62.3519L27.465 60.673ZM27.0152 60.1979L25.5011 62.7089H23.9783L22.5203 60.1979H27.0152ZM22.0677 60.6625L23.0555 62.3414L19.4809 64.3771L19.4694 64.3836L19.4581 64.3905C19.2379 64.5234 18.974 64.5639 18.724 64.5031C18.474 64.4423 18.2582 64.2851 18.1237 64.0658C17.9891 63.8465 17.9468 63.5829 18.0058 63.3325C18.0648 63.0821 18.2205 62.8652 18.4388 62.729L22.0677 60.6625Z" fill="#4F1563" stroke="#4F1563" stroke-width="0.7"/>
<path d="M23.6784 52.1278L23.679 52.128C23.7708 52.1585 23.864 52.1844 23.9584 52.2056C23.9653 52.2072 23.9721 52.2094 23.979 52.2109C24.0654 52.2297 24.1534 52.2437 24.2425 52.2546C24.2581 52.2565 24.2732 52.26 24.2888 52.2617C24.4967 52.2846 24.7065 52.2846 24.9143 52.2617C24.93 52.26 24.9452 52.2566 24.9608 52.2546C25.0498 52.2437 25.1377 52.2297 25.2241 52.211C25.2312 52.2094 25.2381 52.2071 25.2452 52.2055C25.34 52.1842 25.433 52.1584 25.5241 52.128L25.5251 52.1277C26.1839 51.9083 26.7432 51.4617 27.1028 50.8677C27.4624 50.2737 27.5988 49.5711 27.4877 48.8856C27.3766 48.2002 27.0252 47.5767 26.4963 47.1267C25.9675 46.6767 25.2958 46.4296 24.6014 46.4297C23.907 46.4297 23.2353 46.6769 22.7065 47.1269C22.1777 47.577 21.8264 48.2005 21.7154 48.886C21.6043 49.5714 21.7409 50.274 22.1005 50.868C22.4602 51.4619 23.0195 51.9085 23.6784 52.1278V52.1278ZM24.6016 47.4058C24.9871 47.4058 25.364 47.5201 25.6845 47.7343C26.0051 47.9485 26.2549 48.2529 26.4024 48.6091C26.55 48.9653 26.5886 49.3572 26.5134 49.7353C26.4381 50.1134 26.2525 50.4608 25.9799 50.7334C25.7073 51.006 25.36 51.1916 24.9819 51.2668C24.6037 51.342 24.2118 51.3034 23.8556 51.1559C23.4995 51.0084 23.195 50.7585 22.9808 50.438C22.7667 50.1174 22.6523 49.7406 22.6523 49.355C22.6529 48.8383 22.8585 48.3428 23.2239 47.9774C23.5893 47.6119 24.0848 47.4064 24.6016 47.4058Z" fill="#4F1563" stroke="#4F1563" stroke-width="0.7"/>
<path d="M40.6534 45.6993C41.328 45.6993 41.9875 45.4992 42.5485 45.1244C43.1095 44.7496 43.5467 44.2168 43.8049 43.5935C44.063 42.9702 44.1306 42.2843 43.999 41.6226C43.8674 40.9609 43.5425 40.3531 43.0654 39.8761C42.5884 39.399 41.9805 39.0741 41.3188 38.9425C40.6571 38.8109 39.9713 38.8784 39.348 39.1366C38.7246 39.3948 38.1919 39.832 37.8171 40.393C37.4422 40.9539 37.2422 41.6135 37.2422 42.2881C37.2422 43.1928 37.6016 44.0605 38.2413 44.7002C38.881 45.3399 39.7487 45.6993 40.6534 45.6993ZM40.6534 39.8516C41.1353 39.8516 41.6063 39.9945 42.007 40.2622C42.4077 40.5299 42.72 40.9105 42.9044 41.3557C43.0889 41.8009 43.1371 42.2908 43.0431 42.7635C42.9491 43.2361 42.717 43.6703 42.3763 44.011C42.0355 44.3518 41.6013 44.5838 41.1287 44.6779C40.6561 44.7719 40.1661 44.7236 39.7209 44.5392C39.2757 44.3548 38.8952 44.0425 38.6274 43.6418C38.3597 43.2411 38.2168 42.77 38.2168 42.2881C38.2175 41.6421 38.4745 41.0228 38.9313 40.566C39.388 40.1092 40.0074 39.8523 40.6534 39.8516Z" fill="#4F1563" stroke="#4F1563" stroke-width="0.7"/>
<path d="M36.4707 58.2456H36.4846V63.5101C36.4719 64.0269 36.6651 64.5276 37.0215 64.9021C37.378 65.2765 37.8686 65.494 38.3854 65.5068C38.4017 65.5072 38.4181 65.5074 38.4343 65.5074C38.9428 65.5071 39.4311 65.3082 39.7949 64.9529C40.1588 64.5977 40.3695 64.1143 40.3819 63.606L39.3819 58.2456H41.9314L40.9314 63.5101C40.9187 64.0269 41.1118 64.5276 41.4682 64.902C41.8247 65.2765 42.3153 65.494 42.8321 65.5068C42.8484 65.5072 42.8648 65.5074 42.881 65.5074C43.3895 65.5071 43.8778 65.3082 44.2416 64.9529C44.6055 64.5977 44.8162 64.1143 44.8286 63.606V58.2456H44.8362C45.3532 58.2456 45.849 58.0402 46.2146 57.6747C46.5801 57.3091 46.7855 56.8133 46.7855 56.2963V48.6618C46.7827 47.8444 46.5238 47.0484 46.0453 46.3856C45.5668 45.7229 44.8926 45.2267 44.1176 44.9668C43.883 45.2691 43.6102 45.5396 43.3059 45.7715C44.0008 45.8726 44.6362 46.2201 45.096 46.7507C45.5559 47.2814 45.8096 47.9597 45.8108 48.6618V56.2963C45.8105 56.5547 45.7078 56.8024 45.525 56.9852C45.3423 57.1679 45.0946 57.2707 44.8362 57.2709H44.3514V53.7786C44.3514 53.6494 44.3 53.5254 44.2086 53.4341C44.1173 53.3427 43.9933 53.2913 43.8641 53.2913C43.7348 53.2913 43.6109 53.3427 43.5195 53.4341C43.4281 53.5254 43.3768 53.6494 43.3768 53.7786V57.2709H37.925V53.7786C37.925 53.6494 37.8736 53.5254 37.7822 53.4341C37.6909 53.3427 37.5669 53.2913 37.4377 53.2913C37.3084 53.2913 37.1845 53.3427 37.0931 53.4341C37.0017 53.5254 36.9504 53.6494 36.9504 53.7786V57.2709H36.4707C36.2123 57.2707 35.9646 57.1679 35.7819 56.9852C35.5992 56.8024 35.4964 56.5547 35.4961 56.2963V48.6618C35.4973 47.9597 35.751 47.2814 36.2109 46.7507C36.6708 46.2201 37.3061 45.8726 38.001 45.7715C37.6967 45.5396 37.4239 45.2691 37.1894 44.9668C36.4143 45.2267 35.7402 45.7228 35.2617 46.3856C34.7831 47.0484 34.5243 47.8444 34.5215 48.6618V56.2963C34.5215 56.8133 34.7269 57.3091 35.0924 57.6746C35.458 58.0402 35.9538 58.2456 36.4707 58.2456ZM42.906 58.2527H43.854L43.8543 63.5821C43.8466 63.8357 43.7409 64.0765 43.5594 64.2538C43.3779 64.4311 43.1347 64.5311 42.8809 64.5327L42.8561 64.5324C42.7263 64.5284 42.5987 64.4986 42.4805 64.4449C42.3624 64.3912 42.2561 64.3146 42.1677 64.2195C42.0793 64.1244 42.0107 64.0128 41.9658 63.891C41.9209 63.7692 41.9005 63.6397 41.906 63.5101L42.906 58.2527ZM37.4593 58.2527H38.4073L39.4076 63.5821C39.3999 63.8357 39.2942 64.0765 39.1127 64.2538C38.9312 64.4311 38.688 64.5311 38.4342 64.5327L38.4094 64.5324C38.2796 64.5284 38.152 64.4986 38.0338 64.4449C37.9157 64.3912 37.8094 64.3146 37.721 64.2195C37.6326 64.1244 37.564 64.0128 37.5191 63.891C37.4742 63.7692 37.4538 63.6397 37.4593 63.5101L37.4593 58.2527Z" fill="#4F1563" stroke="#4F1563" stroke-width="0.7"/>
<path d="M55.6836 37.1583C56.3583 37.1583 57.0178 36.9582 57.5788 36.5834C58.1397 36.2086 58.577 35.6758 58.8351 35.0525C59.0933 34.4292 59.1609 33.7433 59.0292 33.0816C58.8976 32.4199 58.5727 31.8121 58.0957 31.335C57.6186 30.858 57.0108 30.5331 56.3491 30.4015C55.6874 30.2699 55.0015 30.3374 54.3782 30.5956C53.7549 30.8538 53.2222 31.291 52.8473 31.852C52.4725 32.4129 52.2725 33.0724 52.2725 33.7471C52.2725 34.6518 52.6319 35.5194 53.2716 36.1592C53.9113 36.7989 54.7789 37.1583 55.6836 37.1583ZM55.6836 31.3106C56.1655 31.3106 56.6366 31.4535 57.0373 31.7212C57.438 31.9889 57.7503 32.3695 57.9347 32.8147C58.1191 33.2599 58.1674 33.7498 58.0734 34.2225C57.9793 34.6951 57.7473 35.1292 57.4065 35.47C57.0658 35.8108 56.6316 36.0428 56.159 36.1368C55.6863 36.2309 55.1964 36.1826 54.7512 35.9982C54.306 35.8138 53.9254 35.5015 53.6577 35.1008C53.39 34.7001 53.2471 34.229 53.2471 33.7471C53.2478 33.1011 53.5047 32.4818 53.9615 32.025C54.4183 31.5682 55.0376 31.3113 55.6836 31.3106Z" fill="#4F1563" stroke="#4F1563" stroke-width="0.7"/>
<path d="M50.8297 52.4152V63.1608C50.8147 63.7682 51.0417 64.3566 51.4606 64.7967C51.8795 65.2368 52.4561 65.4924 53.0635 65.5074C53.0826 65.5079 53.1018 65.5081 53.1209 65.5081C53.7185 65.5078 54.2923 65.274 54.7199 64.8565C55.1476 64.439 55.3951 63.871 55.4098 63.2736L54.4098 52.4368H57.0555L56.0555 63.1608C56.0405 63.7682 56.2675 64.3566 56.6864 64.7967C57.1053 65.2368 57.6819 65.4924 58.2893 65.5074C58.3084 65.5079 58.3277 65.5081 58.3467 65.5081C58.9443 65.5078 59.5182 65.274 59.9458 64.8565C60.3734 64.439 60.621 63.871 60.6356 63.2736V52.4053C61.154 52.3316 61.6285 52.0735 61.9721 51.6783C62.3156 51.2831 62.5052 50.7773 62.5061 50.2537V43.5057C62.5022 42.1666 62.1058 40.858 61.3658 39.7419C60.6258 38.6259 59.5747 37.7513 58.3427 37.2266C57.992 37.4952 57.6027 37.7092 57.1879 37.8613C58.432 38.1933 59.5318 38.9263 60.317 39.9468C61.1023 40.9672 61.5291 42.2181 61.5314 43.5057V50.2537C61.5311 50.5741 61.4036 50.8813 61.1771 51.1079C60.9505 51.3344 60.6433 51.4619 60.3229 51.4622H60.0367V46.7409C60.0367 46.6117 59.9853 46.4877 59.8939 46.3964C59.8026 46.305 59.6786 46.2536 59.5494 46.2536C59.4201 46.2536 59.2962 46.305 59.2048 46.3964C59.1134 46.4877 59.0621 46.6117 59.0621 46.7409V51.4622H52.5138V46.7409C52.5138 46.6117 52.4625 46.4877 52.3711 46.3964C52.2797 46.305 52.1558 46.2536 52.0265 46.2536C51.8973 46.2536 51.7733 46.305 51.6819 46.3964C51.5906 46.4877 51.5392 46.6117 51.5392 46.7409V51.4622H51.0445C50.7241 51.4619 50.4169 51.3344 50.1904 51.1079C49.9638 50.8813 49.8364 50.5741 49.836 50.2537V43.7185C49.8288 42.4034 50.2486 41.1214 51.0325 40.0654C51.8163 39.0093 52.9218 38.2363 54.1827 37.8624C53.7699 37.7114 53.3823 37.4991 53.0328 37.2326C51.7851 37.795 50.7271 38.7069 49.9868 39.858C49.2465 41.009 48.8556 42.35 48.8614 43.7185V50.2537C48.8625 50.7941 49.0646 51.3147 49.4284 51.7143C49.7923 52.1138 50.2918 52.3637 50.8297 52.4152ZM58.0301 52.4612H59.4202C59.458 52.4778 59.4989 52.4867 59.5402 52.4873C59.5816 52.4879 59.6227 52.4802 59.661 52.4647L59.6613 63.2496C59.651 63.5921 59.5082 63.9173 59.263 64.1567C59.0179 64.3962 58.6894 64.5312 58.3467 64.5334L58.3133 64.533C58.1387 64.5278 57.9669 64.4881 57.8078 64.4162C57.6486 64.3443 57.5053 64.2416 57.386 64.114C57.2667 63.9865 57.1739 63.8366 57.1128 63.673C57.0517 63.5094 57.0236 63.3353 57.0301 63.1608L58.0301 52.4612ZM51.8043 52.4612H53.4352L54.4355 63.2496C54.4251 63.5921 54.2824 63.9173 54.0372 64.1567C53.792 64.3962 53.4636 64.5312 53.1209 64.5334L53.0875 64.533C52.9129 64.5278 52.7411 64.4881 52.582 64.4162C52.4228 64.3443 52.2795 64.2416 52.1602 64.114C52.0409 63.9865 51.9481 63.8366 51.887 63.673C51.8259 63.5094 51.7978 63.3353 51.8043 63.1608V52.4612Z" fill="#4F1563" stroke="#4F1563" stroke-width="0.7"/>
<path d="M71.0948 30.8223C71.7694 30.8223 72.4289 30.6223 72.9899 30.2475C73.5509 29.8726 73.9881 29.3399 74.2463 28.7166C74.5045 28.0933 74.572 27.4074 74.4404 26.7457C74.3088 26.084 73.9839 25.4762 73.5068 24.9991C73.0298 24.522 72.4219 24.1972 71.7602 24.0655C71.0985 23.9339 70.4127 24.0015 69.7894 24.2597C69.1661 24.5178 68.6333 24.9551 68.2585 25.516C67.8837 26.077 67.6836 26.7365 67.6836 27.4112C67.6836 28.3159 68.043 29.1835 68.6827 29.8232C69.3224 30.4629 70.1901 30.8223 71.0948 30.8223ZM71.0948 24.9746C71.5767 24.9746 72.0477 25.1175 72.4484 25.3853C72.8491 25.653 73.1614 26.0335 73.3458 26.4787C73.5303 26.924 73.5785 27.4139 73.4845 27.8865C73.3905 28.3592 73.1584 28.7933 72.8177 29.1341C72.4769 29.4748 72.0428 29.7069 71.5701 29.8009C71.0975 29.8949 70.6076 29.8467 70.1623 29.6622C69.7171 29.4778 69.3366 29.1655 69.0688 28.7648C68.8011 28.3642 68.6582 27.8931 68.6582 27.4112C68.6589 26.7652 68.9159 26.1459 69.3727 25.6891C69.8294 25.2323 70.4488 24.9753 71.0948 24.9746Z" fill="#4F1563" stroke="#4F1563" stroke-width="0.7"/>
<path d="M66.2408 49.4904V63.1599C66.2259 63.7673 66.4528 64.3557 66.8717 64.7958C67.2906 65.2358 67.8672 65.4915 68.4746 65.5065C68.4938 65.507 68.513 65.5071 68.532 65.5071C69.1296 65.5069 69.7035 65.2731 70.1311 64.8556C70.5587 64.4381 70.8063 63.8701 70.8209 63.2726L69.8209 49.5121H72.4666L71.4666 63.1599C71.4517 63.7673 71.6786 64.3557 72.0975 64.7958C72.5165 65.2358 73.093 65.4915 73.7004 65.5065C73.7196 65.507 73.7388 65.5071 73.7578 65.5071C74.3555 65.5069 74.9293 65.2731 75.3569 64.8556C75.7845 64.4381 76.0321 63.8701 76.0467 63.2726V49.4805C76.5652 49.4068 77.0396 49.1487 77.3832 48.7535C77.7267 48.3583 77.9163 47.8526 77.9172 47.3289V37.1697C77.9133 35.8306 77.5169 34.5221 76.7769 33.406C76.0369 32.2899 74.9858 31.4154 73.7538 30.8906C73.4031 31.1593 73.0138 31.3733 72.599 31.5253C73.8431 31.8574 74.9429 32.5904 75.7282 33.6108C76.5134 34.6312 76.9403 35.8821 76.9426 37.1697V47.3289C76.9422 47.6493 76.8148 47.9565 76.5882 48.1831C76.3616 48.4097 76.0545 48.5371 75.734 48.5375H75.4477V42.8415C75.4477 42.7123 75.3964 42.5884 75.305 42.497C75.2136 42.4056 75.0897 42.3542 74.9604 42.3542C74.8312 42.3542 74.7072 42.4056 74.6159 42.497C74.5245 42.5884 74.4731 42.7123 74.4731 42.8415V48.5375H67.9249V42.8415C67.9249 42.7123 67.8736 42.5884 67.7822 42.497C67.6908 42.4056 67.5668 42.3542 67.4376 42.3542C67.3083 42.3542 67.1844 42.4056 67.093 42.497C67.0016 42.5884 66.9503 42.7123 66.9503 42.8415V48.5375H66.4557C66.1353 48.5371 65.8281 48.4097 65.6015 48.1831C65.3749 47.9565 65.2475 47.6493 65.2471 47.3289V37.3826C65.2399 36.0675 65.6597 34.7855 66.4436 33.7295C67.2274 32.6734 68.3329 31.9004 69.5938 31.5265C69.181 31.3755 68.7934 31.1632 68.4439 30.8966C67.1962 31.459 66.1382 32.371 65.3979 33.522C64.6576 34.6731 64.2667 36.014 64.2725 37.3826V47.3289C64.2736 47.8693 64.4757 48.39 64.8396 48.7895C65.2034 49.189 65.7029 49.4389 66.2408 49.4904ZM73.4412 49.5364H74.8312C74.8691 49.553 74.9099 49.5619 74.9513 49.5625C74.9927 49.5631 75.0338 49.5555 75.0721 49.54L75.0724 63.2487C75.0621 63.5912 74.9193 63.9164 74.6741 64.1558C74.429 64.3952 74.1005 64.5303 73.7578 64.5325L73.7244 64.5321C73.5498 64.5269 73.378 64.4872 73.2189 64.4153C73.0598 64.3434 72.9164 64.2407 72.7971 64.1131C72.6779 63.9856 72.585 63.8357 72.5239 63.6721C72.4628 63.5085 72.4347 63.3344 72.4412 63.1599L73.4412 49.5364ZM67.2154 49.5364H68.8463L69.8466 63.2487C69.8362 63.5912 69.6935 63.9164 69.4483 64.1558C69.2032 64.3953 68.8747 64.5303 68.532 64.5325L68.4986 64.5321C68.324 64.5269 68.1522 64.4872 67.9931 64.4153C67.8339 64.3434 67.6906 64.2407 67.5713 64.1131C67.452 63.9856 67.3592 63.8357 67.2981 63.6721C67.237 63.5084 67.2089 63.3344 67.2154 63.1599V49.5364Z" fill="#4F1563" stroke="#4F1563" stroke-width="0.7"/>
</svg>
