<svg width="97" height="96" viewBox="0 0 97 96" fill="none" xmlns="http://www.w3.org/2000/svg">
<rect x="0.5" width="96" height="96" rx="15" fill="#F9F9F9"/>
<path d="M25.4167 31H56.5833C57.3657 31 58 31.6343 58 32.4167V63.5833C58 64.3657 57.3657 65 56.5833 65H25.4167C24.6343 65 24 64.3657 24 63.5833V32.4167C24 31.6343 24.6343 31 25.4167 31ZM26.8333 33.8333V62.1667H55.1667V33.8333H26.8333ZM65.3106 31.6026C65.8415 30.7991 67.1585 30.7991 67.6894 31.6026L71.7517 35.6649C72.305 36.2182 72.305 37.1152 71.7517 37.6684C71.1985 38.2216 70.3015 38.2216 69.7483 37.6684L67.9167 35.8368V60.1632L69.7483 58.3316C70.3015 57.7784 71.1985 57.7784 71.7517 58.3316C72.305 58.8848 72.305 59.7818 71.7517 60.3351L67.6894 64.3974C67.1585 65.2009 65.8415 65.2009 65.3106 64.3974L61.2483 60.3351C60.695 59.7818 60.695 58.8848 61.2483 58.3316C61.8015 57.7784 62.6985 57.7784 63.2517 58.3316L65.0833 60.1632V35.8368L63.2517 37.6684C62.6985 38.2216 61.8015 38.2216 61.2483 37.6684C60.695 37.1152 60.695 36.2182 61.2483 35.6649L65.3106 31.6026Z" fill="#4F1563"/>
</svg>
