<svg width="97" height="96" viewBox="0 0 97 96" fill="none" xmlns="http://www.w3.org/2000/svg">
<rect x="0.5" width="96" height="96" rx="15" fill="#F9F9F9"/>
<path d="M44.9471 35.7763C45.2495 36.0786 45.703 36.2297 46.1062 36.2297C46.5093 36.2297 46.9125 36.0786 47.2652 35.7763C47.9203 35.1214 47.9203 34.1138 47.2652 33.4588L45.5518 31.7459H66.9188L65.2054 33.4588C64.5503 34.1138 64.5503 35.1214 65.2054 35.7763C65.5078 36.0786 65.9613 36.2297 66.3645 36.2297C66.7676 36.2297 67.1708 36.0786 67.5235 35.7763L72.0086 31.2925C72.6637 30.6375 72.6637 29.6299 72.0086 28.975L67.5235 24.4912C66.8684 23.8363 65.8605 23.8363 65.2054 24.4912C64.5503 25.1461 64.5503 26.1537 65.2054 26.8087L66.9188 28.5216H45.5518L47.2148 26.8591C47.8699 26.2041 47.8699 25.1965 47.2148 24.5416C46.5597 23.8866 45.5518 23.8866 44.8967 24.5416L40.462 29.0254C39.8069 29.6803 39.8069 30.6879 40.462 31.3429L44.9471 35.7763Z" fill="#4F1563"/>
<path d="M33.9614 46.7089C34.2638 47.0112 34.7174 47.1623 35.1205 47.1623C35.5237 47.1623 35.9268 47.0112 36.2796 46.7089C36.9347 46.054 36.9347 45.0464 36.2796 44.3914L31.7945 39.958C31.1394 39.3031 30.1315 39.3031 29.4764 39.958L24.9913 44.4418C24.3362 45.0967 24.3362 46.1043 24.9913 46.7593C25.6465 47.4142 26.6543 47.4142 27.3095 46.7593L29.0229 45.0464V66.4074L27.3599 64.7449C26.7047 64.09 25.6969 64.09 25.0417 64.7449C24.3866 65.3998 24.3866 66.4074 25.0417 67.0624L29.5268 71.5462C29.8292 71.8484 30.2827 71.9996 30.6858 71.9996C31.089 71.9996 31.4921 71.8484 31.8449 71.5462L36.33 67.0624C36.9851 66.4074 36.9851 65.3998 36.33 64.7449C35.6748 64.09 34.667 64.09 34.0118 64.7449L32.2985 66.4578V45.0464L33.9614 46.7089Z" fill="#4F1563"/>
<path d="M70.8498 39.5039H41.6214C40.7143 39.5039 40.0088 40.2092 40.0088 41.1161V70.3364C40.0088 71.2432 40.7143 71.9485 41.6214 71.9485H70.8498C71.7569 71.9485 72.4624 71.2432 72.4624 70.3364V41.1161C72.4624 40.2092 71.7569 39.5039 70.8498 39.5039ZM69.2372 68.7242H43.234V42.7282H69.1868V68.7242H69.2372Z" fill="#4F1563"/>
</svg>
