<svg width="97" height="96" viewBox="0 0 97 96" fill="none" xmlns="http://www.w3.org/2000/svg">
<rect x="0.5" width="96" height="96" rx="15" fill="#F9F9F9"/>
<path d="M48.5 72C49.6229 71.9986 50.6994 71.5241 51.4934 70.6805C52.2874 69.8369 52.734 68.6931 52.7353 67.5V46.5C52.732 45.8305 52.5865 45.1705 52.3095 44.5692L52.3216 44.5605L58.3824 38.121V40.5C58.3824 40.8978 58.5311 41.2794 58.7958 41.5607C59.0606 41.842 59.4197 42 59.7941 42C60.1685 42 60.5276 41.842 60.7924 41.5607C61.0571 41.2794 61.2059 40.8978 61.2059 40.5V34.5C61.2047 34.3079 61.1687 34.1178 61.0997 33.9402V33.9258L61.0977 33.9234C60.9968 33.6848 60.8379 33.479 60.6375 33.327C60.5926 33.2899 60.5454 33.2559 60.4963 33.2253C60.2858 33.0839 60.0431 33.006 59.7941 33H54.1471C53.7726 33 53.4135 33.158 53.1488 33.4393C52.884 33.7206 52.7353 34.1022 52.7353 34.5C52.7353 34.8978 52.884 35.2794 53.1488 35.5607C53.4135 35.842 53.7726 36 54.1471 36H56.3861L50.3254 42.4395L50.3172 42.4524C49.7513 42.1581 49.1301 42.0035 48.5 42H28.7353C27.6124 42.0013 26.5359 42.4759 25.7419 43.3195C24.9479 44.1631 24.5013 45.3069 24.5 46.5V67.5C24.5013 68.6931 24.9479 69.8369 25.7419 70.6805C26.5359 71.5241 27.6124 71.9986 28.7353 72H48.5ZM27.3235 67.5V46.5C27.324 46.1023 27.4729 45.7211 27.7375 45.4399C28.0022 45.1587 28.361 45.0005 28.7353 45H48.5C48.8743 45.0005 49.2331 45.1587 49.4978 45.4399C49.7624 45.7211 49.9113 46.1023 49.9118 46.5V67.5C49.9113 67.8977 49.7624 68.2789 49.4978 68.5601C49.2331 68.8413 48.8743 68.9995 48.5 69H28.7353C28.361 68.9995 28.0022 68.8413 27.7375 68.5601C27.4729 68.2789 27.324 67.8977 27.3235 67.5Z" fill="#4F1563"/>
<path d="M25.9118 39C26.2862 39 26.6453 38.842 26.91 38.5607C27.1748 38.2794 27.3235 37.8978 27.3235 37.5V31.5C27.3235 31.1022 27.1748 30.7206 26.91 30.4393C26.6453 30.158 26.2862 30 25.9118 30C25.5373 30 25.1783 30.158 24.9135 30.4393C24.6487 30.7206 24.5 31.1022 24.5 31.5V37.5C24.5 37.8978 24.6487 38.2794 24.9135 38.5607C25.1783 38.842 25.5373 39 25.9118 39Z" fill="#4F1563"/>
<path d="M25.9118 27H31.5588C31.9332 27 32.2923 26.842 32.5571 26.5607C32.8218 26.2794 32.9706 25.8978 32.9706 25.5C32.9706 25.1022 32.8218 24.7206 32.5571 24.4393C32.2923 24.158 31.9332 24 31.5588 24H25.9118C25.5373 24 25.1783 24.158 24.9135 24.4393C24.6487 24.7206 24.5 25.1022 24.5 25.5C24.5 25.8978 24.6487 26.2794 24.9135 26.5607C25.1783 26.842 25.5373 27 25.9118 27Z" fill="#4F1563"/>
<path d="M37.2057 27H42.8528C43.2272 27 43.5863 26.842 43.851 26.5607C44.1158 26.2794 44.2645 25.8978 44.2645 25.5C44.2645 25.1022 44.1158 24.7206 43.851 24.4393C43.5863 24.158 43.2272 24 42.8528 24H37.2057C36.8313 24 36.4722 24.158 36.2074 24.4393C35.9427 24.7206 35.7939 25.1022 35.7939 25.5C35.7939 25.8978 35.9427 26.2794 36.2074 26.5607C36.4722 26.842 36.8313 27 37.2057 27Z" fill="#4F1563"/>
<path d="M48.5001 27H54.1472C54.5216 27 54.8807 26.842 55.1455 26.5607C55.4102 26.2794 55.559 25.8978 55.559 25.5C55.559 25.1022 55.4102 24.7206 55.1455 24.4393C54.8807 24.158 54.5216 24 54.1472 24H48.5001C48.1257 24 47.7666 24.158 47.5019 24.4393C47.2371 24.7206 47.0884 25.1022 47.0884 25.5C47.0884 25.8978 47.2371 26.2794 47.5019 26.5607C47.7666 26.842 48.1257 27 48.5001 27Z" fill="#4F1563"/>
<path d="M59.7941 27H65.4411C65.8156 27 66.1747 26.842 66.4394 26.5607C66.7042 26.2794 66.8529 25.8978 66.8529 25.5C66.8529 25.1022 66.7042 24.7206 66.4394 24.4393C66.1747 24.158 65.8156 24 65.4411 24H59.7941C59.4197 24 59.0606 24.158 58.7958 24.4393C58.5311 24.7206 58.3823 25.1022 58.3823 25.5C58.3823 25.8978 58.5311 26.2794 58.7958 26.5607C59.0606 26.842 59.4197 27 59.7941 27Z" fill="#4F1563"/>
<path d="M71.088 24C70.7136 24 70.3545 24.158 70.0898 24.4393C69.825 24.7206 69.6763 25.1022 69.6763 25.5V31.5C69.6763 31.8978 69.825 32.2794 70.0898 32.5607C70.3545 32.842 70.7136 33 71.088 33C71.4625 33 71.8215 32.842 72.0863 32.5607C72.3511 32.2794 72.4998 31.8978 72.4998 31.5V25.5C72.4998 25.1022 72.3511 24.7206 72.0863 24.4393C71.8215 24.158 71.4625 24 71.088 24Z" fill="#4F1563"/>
<path d="M71.088 36C70.7136 36 70.3545 36.158 70.0898 36.4393C69.825 36.7206 69.6763 37.1022 69.6763 37.5V43.5C69.6763 43.8978 69.825 44.2794 70.0898 44.5607C70.3545 44.842 70.7136 45 71.088 45C71.4625 45 71.8215 44.842 72.0863 44.5607C72.3511 44.2794 72.4998 43.8978 72.4998 43.5V37.5C72.4998 37.1022 72.3511 36.7206 72.0863 36.4393C71.8215 36.158 71.4625 36 71.088 36Z" fill="#4F1563"/>
<path d="M71.088 48C70.7136 48 70.3545 48.158 70.0898 48.4393C69.825 48.7206 69.6763 49.1022 69.6763 49.5V55.5C69.6763 55.8978 69.825 56.2794 70.0898 56.5607C70.3545 56.842 70.7136 57 71.088 57C71.4625 57 71.8215 56.842 72.0863 56.5607C72.3511 56.2794 72.4998 55.8978 72.4998 55.5V49.5C72.4998 49.1022 72.3511 48.7206 72.0863 48.4393C71.8215 48.158 71.4625 48 71.088 48Z" fill="#4F1563"/>
<path d="M71.088 60C70.7136 60 70.3545 60.158 70.0898 60.4393C69.825 60.7206 69.6763 61.1022 69.6763 61.5V67.5C69.6763 67.8978 69.825 68.2794 70.0898 68.5607C70.3545 68.842 70.7136 69 71.088 69C71.4625 69 71.8215 68.842 72.0863 68.5607C72.3511 68.2794 72.4998 67.8978 72.4998 67.5V61.5C72.4998 61.1022 72.3511 60.7206 72.0863 60.4393C71.8215 60.158 71.4625 60 71.088 60Z" fill="#4F1563"/>
<path d="M68.2649 69H62.6178C62.2434 69 61.8843 69.158 61.6195 69.4393C61.3548 69.7206 61.2061 70.1022 61.2061 70.5C61.2061 70.8978 61.3548 71.2794 61.6195 71.5607C61.8843 71.842 62.2434 72 62.6178 72H68.2649C68.6393 72 68.9984 71.842 69.2631 71.5607C69.5279 71.2794 69.6766 70.8978 69.6766 70.5C69.6766 70.1022 69.5279 69.7206 69.2631 69.4393C68.9984 69.158 68.6393 69 68.2649 69Z" fill="#4F1563"/>
<path d="M56.9706 72C57.3451 72 57.7042 71.842 57.9689 71.5607C58.2337 71.2794 58.3824 70.8978 58.3824 70.5C58.3824 70.1022 58.2337 69.7206 57.9689 69.4393C57.7042 69.158 57.3451 69 56.9706 69H54.1471C53.7727 69 53.4136 69.158 53.1488 69.4393C52.8841 69.7206 52.7354 70.1022 52.7354 70.5C52.7354 70.8978 52.8841 71.2794 53.1488 71.5607C53.4136 71.842 53.7727 72 54.1471 72H56.9706Z" fill="#4F1563"/>
</svg>
